<?xml version="1.0" encoding="UTF-8" standalone="no"?>
<!-- Generator: Adobe Illustrator 19.0.0, SVG Export Plug-In . SVG Version: 6.00 Build 0)  -->

<svg
   xmlns:dc="http://purl.org/dc/elements/1.1/"
   xmlns:cc="http://creativecommons.org/ns#"
   xmlns:rdf="http://www.w3.org/1999/02/22-rdf-syntax-ns#"
   xmlns:svg="http://www.w3.org/2000/svg"
   xmlns="http://www.w3.org/2000/svg"
   xmlns:sodipodi="http://sodipodi.sourceforge.net/DTD/sodipodi-0.dtd"
   xmlns:inkscape="http://www.inkscape.org/namespaces/inkscape"
   sodipodi:docname="money-bag.svg"
   xml:space="preserve"
   style="enable-background:new 0 0 512 512;"
   viewBox="0 0 512 512"
   width="512"
   y="0px"
   x="0px"
   id="Capa_1"
   version="1.1"
   inkscape:version="0.92.3 (2405546, 2018-03-11)"><metadata
   id="metadata165"><rdf:RDF><cc:Work
       rdf:about=""><dc:format>image/svg+xml</dc:format><dc:type
         rdf:resource="http://purl.org/dc/dcmitype/StillImage" /></cc:Work></rdf:RDF></metadata><defs
   id="defs163" /><sodipodi:namedview
   inkscape:current-layer="Capa_1"
   inkscape:window-maximized="1"
   inkscape:window-y="27"
   inkscape:window-x="67"
   inkscape:cy="194.2187"
   inkscape:cx="286.057"
   inkscape:zoom="0.921875"
   showgrid="false"
   id="namedview161"
   inkscape:window-height="1025"
   inkscape:window-width="1853"
   inkscape:pageshadow="2"
   inkscape:pageopacity="0"
   guidetolerance="10"
   gridtolerance="10"
   objecttolerance="10"
   borderopacity="1"
   bordercolor="#666666"
   pagecolor="#ffffff" />
<path
   style="fill:#F6B545;"
   d="M267.636,500.364h-256C4.655,500.364,0,495.709,0,488.727v-23.273  c0-6.982,4.655-11.636,11.636-11.636h256c6.982,0,11.636,4.655,11.636,11.636v23.273  C279.273,495.709,274.618,500.364,267.636,500.364z"
   id="path2" />
<path
   style="fill:#FFCB5B;"
   d="M221.091,465.455H0l0,0c0-6.982,4.655-11.636,11.636-11.636h209.455V465.455z"
   id="path4" />
<g
   id="g20">
	<path
   style="fill:#F19920;"
   d="M221.091,465.455v11.636c0,6.982-4.655,11.636-11.636,11.636H0c0,6.982,4.655,11.636,11.636,11.636   h197.818h58.182c6.982,0,11.636-4.655,11.636-11.636v-23.273H221.091z"
   id="path6" />
	<path
   style="fill:#F19920;"
   d="M34.909,488.727v-17.455c0-3.491-2.327-5.818-5.818-5.818s-5.818,2.327-5.818,5.818v17.455"
   id="path8" />
	<path
   style="fill:#F19920;"
   d="M69.818,488.727v-17.455c0-3.491-2.327-5.818-5.818-5.818c-3.491,0-5.818,2.327-5.818,5.818v17.455"
   id="path10" />
	<path
   style="fill:#F19920;"
   d="M104.727,488.727v-17.455c0-3.491-2.327-5.818-5.818-5.818c-3.491,0-5.818,2.327-5.818,5.818v17.455   "
   id="path12" />
	<path
   style="fill:#F19920;"
   d="M139.636,488.727v-17.455c0-3.491-2.327-5.818-5.818-5.818c-3.491,0-5.818,2.327-5.818,5.818v17.455   "
   id="path14" />
	<path
   style="fill:#F19920;"
   d="M174.545,488.727v-17.455c0-3.491-2.327-5.818-5.818-5.818s-5.818,2.327-5.818,5.818v17.455"
   id="path16" />
	<path
   style="fill:#F19920;"
   d="M209.455,488.727v-17.455c0-3.491-2.327-5.818-5.818-5.818s-5.818,2.327-5.818,5.818v17.455"
   id="path18" />
</g>
<path
   style="fill:#F6B545;"
   d="M290.909,453.818h-256c-6.982,0-11.636-4.655-11.636-11.636v-23.273  c0-6.982,4.655-11.636,11.636-11.636h256c6.982,0,11.636,4.655,11.636,11.636v23.273  C302.545,449.164,297.891,453.818,290.909,453.818z"
   id="path22" />
<path
   style="fill:#FFCB5B;"
   d="M244.364,418.909H23.273l0,0c0-6.982,4.655-11.636,11.636-11.636h209.455V418.909z"
   id="path24" />
<g
   id="g40">
	<path
   style="fill:#F19920;"
   d="M244.364,418.909v11.636c0,6.982-4.655,11.636-11.636,11.636H23.273   c0,6.982,4.655,11.636,11.636,11.636h197.818h58.182c6.982,0,11.636-4.655,11.636-11.636v-23.273H244.364z"
   id="path26" />
	<path
   style="fill:#F19920;"
   d="M58.182,442.182v-17.455c0-3.491-2.327-5.818-5.818-5.818c-3.491,0-5.818,2.327-5.818,5.818v17.455"
   id="path28" />
	<path
   style="fill:#F19920;"
   d="M93.091,442.182v-17.455c0-3.491-2.327-5.818-5.818-5.818c-3.491,0-5.818,2.327-5.818,5.818v17.455"
   id="path30" />
	<path
   style="fill:#F19920;"
   d="M128,442.182v-17.455c0-3.491-2.327-5.818-5.818-5.818c-3.491,0-5.818,2.327-5.818,5.818v17.455"
   id="path32" />
	<path
   style="fill:#F19920;"
   d="M162.909,442.182v-17.455c0-3.491-2.327-5.818-5.818-5.818s-5.818,2.327-5.818,5.818v17.455"
   id="path34" />
	<path
   style="fill:#F19920;"
   d="M197.818,442.182v-17.455c0-3.491-2.327-5.818-5.818-5.818c-3.491,0-5.818,2.327-5.818,5.818v17.455   "
   id="path36" />
	<path
   style="fill:#F19920;"
   d="M232.727,442.182v-17.455c0-3.491-2.327-5.818-5.818-5.818c-3.491,0-5.818,2.327-5.818,5.818v17.455   "
   id="path38" />
</g>
<path
   style="fill:#F6B545;"
   d="M314.182,360.727h-256c-6.982,0-11.636-4.655-11.636-11.636v-23.273  c0-6.982,4.655-11.636,11.636-11.636h256c6.982,0,11.636,4.655,11.636,11.636v23.273  C325.818,356.073,321.164,360.727,314.182,360.727z"
   id="path42" />
<path
   style="fill:#FFCB5B;"
   d="M267.636,325.818H46.545l0,0c0-6.982,4.655-11.636,11.636-11.636h209.455V325.818z"
   id="path44" />
<g
   id="g60">
	<path
   style="fill:#F19920;"
   d="M267.636,325.818v11.636c0,6.982-4.655,11.636-11.636,11.636H46.545   c0,6.982,4.655,11.636,11.636,11.636H256h58.182c6.982,0,11.636-4.655,11.636-11.636v-23.273H267.636z"
   id="path46" />
	<path
   style="fill:#F19920;"
   d="M81.455,349.091v-17.455c0-3.491-2.327-5.818-5.818-5.818c-3.491,0-5.818,2.327-5.818,5.818v17.455"
   id="path48" />
	<path
   style="fill:#F19920;"
   d="M116.364,349.091v-17.455c0-3.491-2.327-5.818-5.818-5.818c-3.491,0-5.818,2.327-5.818,5.818v17.455   "
   id="path50" />
	<path
   style="fill:#F19920;"
   d="M151.273,349.091v-17.455c0-3.491-2.327-5.818-5.818-5.818c-3.491,0-5.818,2.327-5.818,5.818v17.455   "
   id="path52" />
	<path
   style="fill:#F19920;"
   d="M186.182,349.091v-17.455c0-3.491-2.327-5.818-5.818-5.818c-3.491,0-5.818,2.327-5.818,5.818v17.455   "
   id="path54" />
	<path
   style="fill:#F19920;"
   d="M221.091,349.091v-17.455c0-3.491-2.327-5.818-5.818-5.818s-5.818,2.327-5.818,5.818v17.455"
   id="path56" />
	<path
   style="fill:#F19920;"
   d="M256,349.091v-17.455c0-3.491-2.327-5.818-5.818-5.818s-5.818,2.327-5.818,5.818v17.455"
   id="path58" />
</g>
<path
   style="fill:#F6B545;"
   d="M290.909,314.182h-256c-6.982,0-11.636-4.655-11.636-11.636v-23.273  c0-6.982,4.655-11.636,11.636-11.636h256c6.982,0,11.636,4.655,11.636,11.636v23.273  C302.545,309.527,297.891,314.182,290.909,314.182z"
   id="path62" />
<path
   style="fill:#FFCB5B;"
   d="M244.364,279.273H23.273l0,0c0-6.982,4.655-11.636,11.636-11.636h209.455V279.273z"
   id="path64" />
<g
   id="g80">
	<path
   style="fill:#F19920;"
   d="M244.364,279.273v11.636c0,6.982-4.655,11.636-11.636,11.636H23.273   c0,6.982,4.655,11.636,11.636,11.636h197.818h58.182c6.982,0,11.636-4.655,11.636-11.636v-23.273H244.364z"
   id="path66" />
	<path
   style="fill:#F19920;"
   d="M58.182,302.545v-17.455c0-3.491-2.327-5.818-5.818-5.818c-3.491,0-5.818,2.327-5.818,5.818v17.455"
   id="path68" />
	<path
   style="fill:#F19920;"
   d="M93.091,302.545v-17.455c0-3.491-2.327-5.818-5.818-5.818c-3.491,0-5.818,2.327-5.818,5.818v17.455"
   id="path70" />
	<path
   style="fill:#F19920;"
   d="M128,302.545v-17.455c0-3.491-2.327-5.818-5.818-5.818c-3.491,0-5.818,2.327-5.818,5.818v17.455"
   id="path72" />
	<path
   style="fill:#F19920;"
   d="M162.909,302.545v-17.455c0-3.491-2.327-5.818-5.818-5.818s-5.818,2.327-5.818,5.818v17.455"
   id="path74" />
	<path
   style="fill:#F19920;"
   d="M197.818,302.545v-17.455c0-3.491-2.327-5.818-5.818-5.818c-3.491,0-5.818,2.327-5.818,5.818v17.455   "
   id="path76" />
	<path
   style="fill:#F19920;"
   d="M232.727,302.545v-17.455c0-3.491-2.327-5.818-5.818-5.818c-3.491,0-5.818,2.327-5.818,5.818v17.455   "
   id="path78" />
</g>
<path
   style="fill:#F6B545;"
   d="M267.636,407.273h-256C4.655,407.273,0,402.618,0,395.636v-23.273  c0-6.982,4.655-11.636,11.636-11.636h256c6.982,0,11.636,4.655,11.636,11.636v23.273  C279.273,402.618,274.618,407.273,267.636,407.273z"
   id="path82" />
<path
   style="fill:#FFCB5B;"
   d="M221.091,372.364H0l0,0c0-6.982,4.655-11.636,11.636-11.636h209.455V372.364z"
   id="path84" />
<g
   id="g100">
	<path
   style="fill:#F19920;"
   d="M221.091,372.364V384c0,6.982-4.655,11.636-11.636,11.636H0c0,6.982,4.655,11.636,11.636,11.636   h197.818h58.182c6.982,0,11.636-4.655,11.636-11.636v-23.273H221.091z"
   id="path86" />
	<path
   style="fill:#F19920;"
   d="M34.909,395.636v-17.455c0-3.491-2.327-5.818-5.818-5.818s-5.818,2.327-5.818,5.818v17.455"
   id="path88" />
	<path
   style="fill:#F19920;"
   d="M69.818,395.636v-17.455c0-3.491-2.327-5.818-5.818-5.818c-3.491,0-5.818,2.327-5.818,5.818v17.455"
   id="path90" />
	<path
   style="fill:#F19920;"
   d="M104.727,395.636v-17.455c0-3.491-2.327-5.818-5.818-5.818c-3.491,0-5.818,2.327-5.818,5.818v17.455   "
   id="path92" />
	<path
   style="fill:#F19920;"
   d="M139.636,395.636v-17.455c0-3.491-2.327-5.818-5.818-5.818c-3.491,0-5.818,2.327-5.818,5.818v17.455   "
   id="path94" />
	<path
   style="fill:#F19920;"
   d="M174.545,395.636v-17.455c0-3.491-2.327-5.818-5.818-5.818s-5.818,2.327-5.818,5.818v17.455"
   id="path96" />
	<path
   style="fill:#F19920;"
   d="M209.455,395.636v-17.455c0-3.491-2.327-5.818-5.818-5.818s-5.818,2.327-5.818,5.818v17.455"
   id="path98" />
</g>
<path
   style="fill:#C97629;"
   d="M488.727,424.727c-15.127-10.473-23.273-27.927-23.273-46.545  c0-70.982-27.927-138.473-77.964-188.509l-50.036-50.036v-34.909l40.727-51.2C381.673,48.873,384,43.055,384,37.236  c0-13.964-11.636-25.6-25.6-25.6h-44.218l-11.636,23.273l-23.273-23.273h-55.855c-13.964,0-25.6,11.636-25.6,25.6  c0,5.818,2.327,11.636,5.818,16.291l40.727,51.2v34.909l-50.036,50.036c-50.036,50.036-77.964,117.527-77.964,188.509l0,0  c0,18.618-8.145,36.073-23.273,46.545s-23.273,27.927-23.273,46.545l0,0c0,16.291,12.8,29.091,29.091,29.091h384  c16.291,0,29.091-12.8,29.091-29.091l0,0C512,452.655,503.855,435.2,488.727,424.727z"
   id="path102" />
<path
   style="fill:#B06328;"
   d="M488.727,424.727c-15.127-11.636-23.273-29.091-23.273-47.709  c1.164-73.309-32.582-141.964-83.782-194.327l-44.218-43.055v-34.909l40.727-51.2c6.982-8.145,8.145-19.782,2.327-30.255  c-4.655-8.145-13.964-11.636-23.273-11.636c-8.145,0-12.8,9.309-10.473,16.291c1.164,2.327,2.327,5.818,2.327,9.309  c0,5.818-2.327,11.636-5.818,16.291l-40.727,51.2v34.909h-58.182l-11.636,11.636h81.455l43.055,43.055  c47.709,47.709,66.327,112.873,61.673,179.2c-1.164,19.782,6.982,38.4,22.109,50.036c1.164,1.164,2.327,2.327,3.491,2.327  c17.455,18.618,2.327,50.036-24.436,50.036H70.982c2.327,12.8,13.964,23.273,27.927,23.273h337.455h29.091h17.455  C499.2,499.2,512,486.4,512,470.109v-2.327C512,450.327,502.691,435.2,488.727,424.727z"
   id="path104" />
<path
   style="fill:#FFCB5B;"
   d="M343.273,139.636H238.545c-9.309,0-17.455-8.145-17.455-17.455l0,0  c0-9.309,8.145-17.455,17.455-17.455h104.727c9.309,0,17.455,8.145,17.455,17.455l0,0  C360.727,131.491,352.582,139.636,343.273,139.636z"
   id="path106" />
<path
   style="fill:#FFE278;"
   d="M238.545,104.727h58.182c3.491,0,5.818,2.327,5.818,5.818l0,0c0,3.491-2.327,5.818-5.818,5.818  h-58.182c-3.491,0-5.818-2.327-5.818-5.818l0,0C232.727,107.055,235.055,104.727,238.545,104.727z"
   id="path108" />
<path
   style="fill:#F6B545;"
   d="M343.273,104.727h-5.818v11.636c0,6.982-4.655,11.636-11.636,11.636H222.255  c2.327,6.982,9.309,11.636,16.291,11.636h104.727c9.309,0,17.455-8.145,17.455-17.455S352.582,104.727,343.273,104.727z"
   id="path110" />
<path
   style="fill:#F19920;"
   d="M308.364,128h34.909c3.491,0,5.818,2.327,5.818,5.818l0,0c0,3.491-2.327,5.818-5.818,5.818h-34.909  c-3.491,0-5.818-2.327-5.818-5.818l0,0C302.545,130.327,304.873,128,308.364,128z"
   id="path112" />
<rect
   x="279.273"
   y="139.636"
   style="fill:#F6B545;"
   width="23.273"
   height="93.091"
   id="rect114" />
<polygon
   style="fill:#F19920;"
   points="279.273,139.636 279.273,151.273 290.909,151.273 290.909,232.727 302.545,232.727   302.545,151.273 302.545,139.636 "
   id="polygon116" />
<circle
   style="fill:#F6B545;"
   cx="290.909"
   cy="314.182"
   r="93.091"
   id="circle118" />
<path
   style="fill:#B06328;"
   d="M361.891,254.836C375.855,271.127,384,290.909,384,314.182c0,51.2-41.891,93.091-93.091,93.091  c-23.273,0-43.055-8.145-59.345-22.109c17.455,20.945,43.055,33.745,70.982,33.745c51.2,0,93.091-41.891,93.091-93.091  C395.636,296.727,382.836,271.127,361.891,254.836z"
   id="path120" />
<circle
   style="fill:#FFCB5B;"
   cx="290.909"
   cy="314.182"
   r="81.455"
   id="circle122" />
<path
   style="fill:#F19920;"
   d="M372.364,314.182c0,45.382-36.073,81.455-81.455,81.455v11.636c51.2,0,93.091-41.891,93.091-93.091  H372.364z"
   id="path124" />
<path
   style="fill:#FFE27A;"
   d="M290.909,232.727v-11.636c-51.2,0-93.091,41.891-93.091,93.091h11.636  C209.455,268.8,245.527,232.727,290.909,232.727z"
   id="path126" />

<g
   id="g130">
</g>
<g
   id="g132">
</g>
<g
   id="g134">
</g>
<g
   id="g136">
</g>
<g
   id="g138">
</g>
<g
   id="g140">
</g>
<g
   id="g142">
</g>
<g
   id="g144">
</g>
<g
   id="g146">
</g>
<g
   id="g148">
</g>
<g
   id="g150">
</g>
<g
   id="g152">
</g>
<g
   id="g154">
</g>
<g
   id="g156">
</g>
<g
   id="g158">
</g>
<g
   transform="matrix(0.27604804,0,0,0.22720956,-26062.075,242.88817)"
   id="g1172"><path
     style="stroke:#000000;stroke-opacity:1"
     id="path2-3"
     d="m 95712.628,356.87198 c -6.711,0.271 -228.672,10.254 -230.002,10.314 v -30.267 l 179.704,-6.837 c 4.337,-0.165 7.751,-3.757 7.695,-8.096 -0.245,-19.313 -3.961,-69.605 -33.104,-119.358 -2.233,-3.813 -7.133,-5.094 -10.946,-2.86 -3.813,2.233 -5.093,7.134 -2.86,10.946 23.91,40.821 29.491,82.042 30.648,103.683 l -171.137,6.511 v -208.292 c 28.398,5.521 66.323,18.651 100.736,49.424 3.303,2.95 8.357,2.656 11.297,-0.631 2.944,-3.294 2.662,-8.352 -0.631,-11.297 -38.315,-34.261 -80.595,-48.201 -111.402,-53.774005 0,-0.724 -2.377,-0.5 21.536,-0.5 4.418,0 8,-3.582 8,-8 v -40.738 c 0,-4.418 -3.582,-8 -8,-8 h -21.536 v -24.592 c 0,-4.418 -3.582,-7.9999999 -8,-7.9999999 h -28.518 c -4.418,0 -8,3.5819999 -8,7.9999999 v 24.592 h -21.536 c -4.418,0 -8,3.582 -8,8 v 40.739 c 0,4.418 3.582,8 8,8 h 21.536 c 0,1.488 -33.73,82.903005 -90.319,167.834005 -42.156,63.267 -49.415,61.822 -45.331,70.102 1.348,2.733 4.13,4.462 7.174,4.462 0.02,0 98.345,-0.733 98.345,-0.733 4.418,-0.033 7.973,-3.642 7.94,-8.06 -0.03,-4.398 -3.608,-7.94 -7.999,-7.94 -0.02,0 -81.98,0.611 -81.98,0.611 43.702,-57.958 81.123,-120.133 112.17,-186.527 v 233.602 c -91.565,4.118 -174.003,7.821 -179.722,8.053 -5.759,0.231 -9.398,6.314 -6.868,11.501 l 61.109,125.273 c 1.341,2.748 4.131,4.492 7.19,4.492 h 311.654 c 2.896,0 5.567,-1.566 6.981,-4.094 l 81.479,-145.643 c 3.063,-5.476 -1.105,-12.178 -7.303,-11.9 z M 95454.109,95.838975 h 12.518 V 366.79398 l -12.518,0.5 c 0,-57.793 0,-271.258005 0,-271.455005 z m 0,-73.331 h 12.518 v 16.592 h -12.518 z m -29.536,32.592 h 71.59 v 24.739 h -71.59 z m 254.969,353.097005 -151.345,7.75 c -4.412,0.226 -7.807,3.986 -7.58,8.398 0.23,4.499 4.097,7.821 8.398,7.58 l 141.3,-7.235 -15.984,28.572 -59.392,4.026 c -4.408,0.299 -7.739,4.114 -7.44,8.522 0.301,4.441 4.154,7.742 8.522,7.44 l 48.985,-3.321 -18.225,32.579 h -301.964 l -53.569,-109.815 c 32.969,-1.465 393.29,-17.673 427.711,-19.204 z"
     inkscape:connector-curvature="0" /><path
     id="path4-6"
     d="m 95605.749,185.10798 c 1.728,4.148 6.443,6 10.45,4.33 4.181,-1.746 5.982,-6.465 4.33,-10.45 -1.981,-4.745 -7.744,-6.348 -11.83,-3.59 -3.168,2.086 -4.41,6.213 -2.95,9.71 z"
     inkscape:connector-curvature="0" /><path
     inkscape:connector-curvature="0"
     id="path838"
     d="m 95317.049,485.36844 c -4.408,-9.0983 -16.188,-33.29664 -26.177,-53.77407 -9.99,-20.47743 -17.877,-37.51672 -17.529,-37.86509 0.348,-0.34837 90.577,-4.65909 200.508,-9.57937 109.932,-4.92028 205.427,-9.24249 212.212,-9.6049 l 12.336,-0.65894 -1.555,2.45305 c -0.856,1.34918 -5.115,8.86351 -9.466,16.69851 l -7.91,14.24547 -6.125,0.62479 c -3.369,0.34364 -37.61,2.17258 -76.091,4.06431 -41.813,2.05547 -71.047,3.92969 -72.653,4.65768 -5.275,2.39159 -5.684,10.9775 -0.68,14.25634 2.332,1.52781 9.021,1.34698 73.475,-1.98643 39,-2.01699 71.068,-3.54349 71.263,-3.39221 0.663,0.51575 -14.255,26.70406 -15.442,27.10802 -0.651,0.22134 -14.72,1.31264 -31.265,2.42512 -25.808,1.73535 -30.393,2.30422 -32.271,4.00435 -3.197,2.89333 -2.949,9.23193 0.488,12.46061 l 2.677,2.51542 25.182,-1.76656 c 13.85,-0.9716 25.314,-1.63395 25.476,-1.47188 0.162,0.16207 -3.609,7.23221 -8.381,15.71141 l -8.675,15.41674 h -150.691 -150.691 z"
     style="fill:#000000;fill-opacity:0;stroke:#000000;stroke-width:8.67796612;stroke-miterlimit:4;stroke-dasharray:none;stroke-opacity:1" /><path
     inkscape:connector-curvature="0"
     id="path892"
     d="m 95316.83,518.12986 c -0.844,-0.34691 -2.111,-1.27552 -2.815,-2.06359 -1.93,-2.15816 -63.533,-128.90423 -63.533,-130.71699 0,-2.51822 2.152,-5.98042 4.459,-7.17338 1.452,-0.75105 5.911,-1.2378 13.985,-1.52687 6.52,-0.23338 22.726,-0.91768 36.015,-1.52064 13.289,-0.60298 24.852,-1.1003 25.696,-1.10517 0.843,-0.005 20.173,-0.89922 42.953,-1.98742 36.051,-1.72208 58.048,-2.68279 62.705,-2.73865 1.273,-0.0153 1.343,-6.05153 1.343,-115.89272 V 137.5278 l -12.501,24.79168 c -27.553,54.64591 -58.029,104.41561 -92.326,150.77654 l -6.384,8.6291 17.062,0.0194 c 9.384,0.0107 28.452,0.0166 42.374,0.0132 26.848,-0.007 26.333,-0.0738 28.991,3.78149 1.615,2.34436 1.661,4.78185 0.143,7.7165 -2.359,4.56196 -1.947,4.51789 -44.206,4.73349 -70.052,0.35738 -63.885,0.51472 -66.254,-1.69049 -2.593,-2.41415 -3.575,-4.91273 -2.934,-7.46712 0.275,-1.0953 6.072,-9.44157 12.882,-18.54728 31.438,-42.03338 56.082,-80.49176 81.293,-126.85998 9.467,-17.41056 28.56,-55.89323 34.896,-70.33167 2.685,-6.11707 5.491,-12.41631 6.236,-13.998313 l 1.355,-2.876367 -11.244,-0.0015 c -12.366,-0.0015 -15.687,-0.871823 -17.55,-4.600997 -1.364,-2.729327 -1.364,-45.593632 0,-48.322959 1.851,-3.70373 5.207,-4.599683 17.236,-4.600994 l 10.931,-8.47e-4 V 26.393515 c 0,-20.3123986 -0.451,-19.9181715 22.785,-19.9181715 h 17.076 l 2.505,2.2364586 2.505,2.2364589 0.24,13.871194 0.24,13.871194 h 10.715 c 11.588,0 14.863,0.752243 17.085,3.924801 1.089,1.554783 1.251,4.76747 1.251,24.838865 0,19.648751 -0.177,23.305503 -1.198,24.762225 -2.32,3.312992 -4.962,3.995619 -15.831,4.090416 -5.611,0.04894 -9.511,0.248418 -8.667,0.44329 26.668,6.159404 42.598,11.827224 62.963,22.402294 15.945,8.27967 37.259,23.12141 45.101,31.40587 4.259,4.49918 1.92,12.21282 -4.106,13.53623 -3.05,0.66999 -5.093,-0.40353 -12.298,-6.46176 -16.607,-13.96524 -41.4,-28.13903 -62.488,-35.72366 -9.169,-3.29767 -28.891,-8.81656 -31.506,-8.81656 -0.973,0 -1.118,13.42234 -1.118,103.92436 v 103.92434 l 6.712,-0.40942 c 5.696,-0.34747 102.845,-4.01041 141.709,-5.34303 6.75,-0.23144 14.43,-0.60878 17.066,-0.83851 l 4.794,-0.4177 v -3.73482 c 0,-5.72824 -2.117,-20.60286 -4.576,-32.14747 -4.477,-21.0169 -10.753,-38.5941 -20.819,-58.30361 -3.329,-6.51869 -6.053,-12.48991 -6.053,-13.26937 0,-4.48008 5.349,-8.67026 9.905,-7.7591 3.127,0.62547 5.243,3.24226 10.328,12.77155 16.382,30.69833 28.072,75.49947 28.087,107.63895 0,5.68915 -1.241,8.46946 -4.593,10.26323 -0.953,0.50999 -171.16,7.67368 -182.324,7.67368 -0.13,0 -0.236,6.78165 -0.236,15.07032 v 15.07032 l 7.095,-0.45483 c 3.903,-0.25016 55.832,-2.61767 115.398,-5.26112 73.846,-3.27712 108.962,-4.57165 110.374,-4.06881 2.886,1.0275 5.231,4.44959 5.145,7.50644 -0.05,1.85662 -11.197,22.43601 -41.224,76.12493 -22.634,40.46924 -42.007,74.44336 -43.051,75.49803 l -1.899,1.91757 -158.183,0.14601 c -87.001,0.0803 -158.873,-0.13782 -159.717,-0.48474 z m 313.555,-31.32096 c 3.371,-6.02241 5.945,-11.13457 5.719,-11.36035 -0.225,-0.22578 -10.37,0.29943 -22.543,1.16713 l -22.134,1.57763 -3.195,-3.33547 c -5.57,-5.81406 -6.228,-12.58044 -1.723,-17.71082 1.635,-1.86326 3.327,-2.83208 5.906,-3.38328 1.988,-0.42482 16.04,-1.69266 31.228,-2.81744 15.187,-1.12478 27.643,-2.09737 27.679,-2.1613 0.04,-0.0639 1.807,-3.05013 3.934,-6.636 4.952,-8.34662 6.566,-11.54935 6.071,-12.04446 -0.218,-0.21804 -25.526,0.86932 -56.241,2.41636 -30.715,1.54704 -61.541,2.87928 -68.501,2.96056 -11.988,0.13997 -12.783,0.0574 -15.055,-1.56294 -6.137,-4.37806 -6.583,-13.86998 -0.9,-19.17671 2.932,-2.73811 12.014,-3.50957 83.837,-7.12131 49.685,-2.49852 72.067,-3.86655 72.606,-4.43775 0.278,-0.29471 3.47,-5.88589 7.094,-12.42483 5.488,-9.90316 6.36,-11.92629 5.222,-12.11228 -0.752,-0.12281 -39.668,1.52189 -86.482,3.65491 -46.813,2.13301 -115.489,5.25835 -152.613,6.9452 -79.783,3.62512 -126.412,5.79828 -149.48,6.96653 -9.231,0.46749 -17.947,0.66127 -19.368,0.43064 -1.421,-0.23064 -2.579,-0.18217 -2.573,0.10771 0.01,0.76385 10.993,23.76055 31.095,65.13812 l 17.601,36.23091 148.343,-0.18045 148.343,-0.18046 z m -163.79,-255.40169 0.194,-135.18923 h -6.138 -6.139 v 135.41325 135.41325 l 5.945,-0.22402 5.944,-0.22402 z m 29.337,-163.952895 V 55.565333 h -35.667 -35.667 v 11.888982 11.888982 h 35.667 35.667 z m -29.147,-36.817492 v -8.053827 h -6.137 -6.136 v 8.053827 8.053826 h 6.136 6.137 z"
     style="fill:#e78825;fill-opacity:1;stroke:#e78825;stroke-width:6.13624859;stroke-miterlimit:4;stroke-dasharray:none;stroke-opacity:1" /><path
     inkscape:connector-curvature="0"
     id="path894"
     d="m 95610.74,189.54397 c -1.638,-0.61065 -3.073,-1.68475 -3.925,-2.93873 -1.061,-1.5596 -1.418,-2.70532 -1.418,-4.5433 0,-3.06787 1.401,-5.43366 4.106,-6.93173 1.275,-0.7063 1.719,-0.80428 3.622,-0.79968 1.818,0.004 2.393,0.12237 3.55,0.72834 2.717,1.42307 4.259,3.97257 4.259,7.04023 0,3.07738 -1.583,5.55808 -4.494,7.04481 -1.447,0.73874 -4.262,0.93632 -5.7,0.40006 z"
     style="fill:#e78825;fill-opacity:1;stroke:#e78825;stroke-width:2.16949153;stroke-miterlimit:4;stroke-dasharray:none;stroke-opacity:1" /></g></svg>