<svg id="Capa_1" enable-background="new 0 0 512 512" height="512" viewBox="0 0 512 512" width="512" xmlns="http://www.w3.org/2000/svg"><path d="m412 496h-372v-40h-20v-80h462z" fill="#cc9081"/><g fill="#ddb9b6"><path d="m482 376h-150l30-40h120c11.046 0 20 8.954 20 20 0 11.046-8.954 20-20 20z"/><path d="m10 336h40v40h-40z"/><path d="m50 336h40v40h-40z"/><path d="m90 336h40v40h-40z"/><path d="m130 336h40v40h-40z"/><path d="m362 286h40v50h-40z"/><path d="m217 296h40v80h-40z"/></g><circle cx="134.5" cy="436" fill="#e2e9ee" r="20"/><circle cx="214.5" cy="436" fill="#e2e9ee" r="20"/><circle cx="294.5" cy="436" fill="#e2e9ee" r="20"/><circle cx="374.5" cy="436" fill="#e2e9ee" r="20"/><path d="m152 196h170v100h-170z" fill="#fff"/><path d="m217 156h40v40h-40z" fill="#ddb9b6"/><path d="m362 76h60v40h-60z" fill="#ff5a58"/><path d="m50 66h60v40h-60z" fill="#ff5a58"/><path d="m157 96h160v60h-160z" fill="#fff"/><path d="m472 286h-110v-130z" fill="#fff"/><path d="m217 56h40v40h-40z" fill="#ddb9b6"/><path d="m176 16h122v40h-122z" fill="#fff"/><path d="m50 296h40v40h-40z" fill="#ddb9b6"/><path d="m12 236h140v60h-140z" fill="#fff"/><path d="m50 196h40v40h-40z" fill="#ddb9b6"/><path d="m22 146h100v50h-100z" fill="#fff"/><path d="m512 356c0-9.759-4.687-18.442-11.925-23.924l-18.719-49.606c-.029-.077-.328-.715-.577-1.21-.109-.217-.482-.833-.596-.99-.251-.347-.533-.708-.549-.728l-107.634-127.205v-26.337h50c5.523 0 10-4.477 10-10v-40c0-5.523-4.477-10-10-10h-60c-5.523 0-10 4.477-10 10v256.667l-25 33.333h-60v-60h55c5.523 0 10-4.477 10-10v-100c0-5.523-4.477-10-10-10h-55v-20h50c5.523 0 10-4.477 10-10v-60c0-5.523-4.477-10-10-10h-50v-20h31c5.523 0 10-4.477 10-10v-40c0-5.523-4.477-10-10-10h-122c-5.523 0-10 4.477-10 10v40c0 5.523 4.477 10 10 10h31v20h-50c-5.523 0-10 4.477-10 10v60c0 5.523 4.477 10 10 10h50v20h-55c-5.523 0-10 4.477-10 10v30h-42v-20h22c5.523 0 10-4.477 10-10v-50c0-5.523-4.477-10-10-10h-62v-20h50c5.523 0 10-4.477 10-10v-40c0-5.523-4.477-10-10-10h-60c-5.523 0-10 4.477-10 10v70h-18c-5.523 0-10 4.477-10 10v50c0 5.523 4.477 10 10 10h18v20h-28c-5.523 0-10 4.477-10 10v60c0 5.523 4.477 10 10 10h28v20h-30c-5.523 0-10 4.477-10 10v40c0 5.523 4.477 10 10 10v70c0 5.523 4.477 10 10 10h10v30c0 5.523 4.477 10 10 10h372c3.557 0 6.846-1.889 8.638-4.961l16.592-28.439c2.77-4.76 1.16-10.9-3.6-13.68-1.53-.89-3.27-1.36-5.03-1.36-3.55 0-6.86 1.9-8.64 4.95 0 .01-.01.01-.01.01l-13.694 23.48h-356.256v-20h30c5.523 0 10-4.477 10-10s-4.477-10-10-10h-50v-60h434.59l-.442 1.755c-.868 4.137.981 8.5 4.752 10.705 1.53.89 3.27 1.36 5.03 1.36 3.55 0 6.86-1.9 8.65-4.96l5.533-9.488c13.62-2.831 23.887-14.924 23.887-29.372zm-140-270h40v20h-40zm-312-10h40v20h-40zm-20 290h-20v-20h20zm146-320v-20h102v20zm61 20v20h-20v-20zm-80 80v-40h140v40zm80 20v20h-20v-20zm-85 40h150v80h-20v-5c0-5.51-4.49-10-10-10s-10 4.49-10 10v5h-110zm-130-20v-30h80v30zm48 20v20h-20v-20zm-58 80v-40h120v40zm58 80h-20v-20h20zm0-40h-20v-20h20zm40 40h-20v-20h20zm40 0h-20v-20h20zm47 0h-27v-30c0-5.523-4.477-10-10-10h-70v-20h107zm40 0h-20v-60h20zm229.406-40h-64.406v-30h53.085zm-104.406-142.701 78.439 92.701h-78.439zm0 112.701h20v30h-20zm110 70h-130l15-20h115c2.546 0 4.049 1.42 6.405 2.329 2.195 1.836 3.595 4.592 3.595 7.671 0 5.514-4.486 10-10 10z"/><path d="m104.5 436c0 16.542 13.458 30 30 30s30-13.458 30-30-13.458-30-30-30-30 13.458-30 30zm40 0c0 5.514-4.486 10-10 10s-10-4.486-10-10 4.486-10 10-10 10 4.486 10 10z"/><path d="m184.5 436c0 16.542 13.458 30 30 30s30-13.458 30-30-13.458-30-30-30-30 13.458-30 30zm40 0c0 5.514-4.486 10-10 10s-10-4.486-10-10 4.486-10 10-10 10 4.486 10 10z"/><path d="m264.5 436c0 16.542 13.458 30 30 30s30-13.458 30-30-13.458-30-30-30-30 13.458-30 30zm40 0c0 5.514-4.486 10-10 10s-10-4.486-10-10 4.486-10 10-10 10 4.486 10 10z"/><path d="m344.5 436c0 16.542 13.458 30 30 30s30-13.458 30-30-13.458-30-30-30-30 13.458-30 30zm40 0c0 5.514-4.486 10-10 10s-10-4.486-10-10 4.486-10 10-10 10 4.486 10 10z"/><circle cx="282" cy="236" r="10"/><path d="m456.3 420.05c-1.53-.89-3.27-1.36-5.03-1.36-3.54 0-6.86 1.9-8.64 4.96-1.35 2.31-1.72 5-1.04 7.58.68 2.59 2.33 4.75 4.63 6.1 1.53.89 3.27 1.36 5.03 1.36 3.55 0 6.87-1.9 8.65-4.96 2.78-4.76 1.16-10.9-3.6-13.68z"/></svg>