<svg viewBox="0 0 512 512" width="512pt" 
    xmlns="http://www.w3.org/2000/svg">
    <g fill-rule="evenodd">
        <path d="m193 50h126v126h-126zm63 166h103v-206h-206v206zm0 0" fill="#ffb48d"/>
        <path d="m193 50h126v126h-126zm0 0" fill="#ff9256"/>
        <path d="m256 216h-206v206h206zm-166 40h126v126h-126zm0 0" fill="#ffb48d"/>
        <path d="m90 256h126v126h-126zm0 0" fill="#ff9256"/>
        <path d="m256 216v206h206v-206zm40 40h126v126h-126zm0 0" fill="#ffb48d"/>
        <path d="m296 256h126v126h-126zm0 0" fill="#ff9256"/>
        <path d="m90.003906 461.996094v-39.996094h-80.003906v39.996094zm0 0" fill="#ffc059"/>
        <path d="m90.003906 422h125.996094v40h-125.996094zm0 0" fill="#ffd89e"/>
        <path d="m216 422v39.996094h80v-39.996094zm0 0" fill="#ffc059"/>
        <path d="m296 422h125.996094v40h-125.996094zm0 0" fill="#ffd89e"/>
        <path d="m421.996094 422v39.996094h80.003906v-39.996094zm0 0" fill="#ffc059"/>
    </g>
    <path d="m502 412h-30v-196c0-5.523438-4.480469-10-10-10h-93v-196c0-5.523438-4.476562-10-10-10h-76c-5.523438 0-10 4.476562-10 10s4.476562 10 10 10h66v186h-186v-186h30c5.523438 0 10-4.476562 10-10s-4.476562-10-10-10h-40c-5.523438 0-10 4.476562-10 10v196h-93c-5.519531 0-10 4.476562-10 10v196h-30c-5.523438 0-10 4.476562-10 10v40c0 5.519531 4.476562 10 10 10h492c5.523438 0 10-4.480469 10-10v-40c0-5.523438-4.476562-10-10-10zm-50 0h-48.003906c-5.523438 0-10 4.476562-10 10 0 5.519531 4.476562 10 10 10h8v20h-105.996094v-20h7.996094c5.523437 0 10-4.480469 10-10 0-5.523438-4.476563-10-10-10h-47.996094v-186h186zm-246 20v20h-105.996094v-20zm20 0h60v20h-60zm-166-206h186v186h-186zm-40 206h60.003906v20h-60.003906zm472 20h-60.003906v-20h60.003906zm0 0"/>
    <path d="m183 50v126c0 5.523438 4.476562 10 10 10h126c5.523438 0 10-4.476562 10-10v-126c0-5.523438-4.476562-10-10-10h-126c-5.523438 0-10 4.476562-10 10zm126 101.855469-38.855469-38.855469 38.855469-38.855469zm-14.144531 14.144531h-77.714844l38.859375-38.859375zm-38.855469-67.140625-38.859375-38.859375h77.71875zm-14.144531 14.140625-38.855469 38.855469v-77.710938zm0 0"/>
    <path d="m226 382v-126c0-5.523438-4.476562-10-10-10h-126c-5.519531 0-10 4.476562-10 10v126c0 5.523438 4.480469 10 10 10h126c5.523438 0 10-4.476562 10-10zm-126-101.859375 38.859375 38.859375-38.859375 38.855469zm14.140625-14.140625h77.71875l-38.859375 38.855469zm38.859375 67.140625 38.855469 38.859375h-77.714844zm14.144531-14.140625 38.855469-38.859375v77.714844zm0 0"/>
    <path d="m286 256v126c0 5.523438 4.476562 10 10 10h126c5.519531 0 10-4.476562 10-10v-126c0-5.523438-4.480469-10-10-10h-126c-5.523438 0-10 4.476562-10 10zm126 101.855469-38.859375-38.855469 38.859375-38.859375zm-14.144531 14.144531h-77.714844l38.859375-38.859375zm-38.855469-67.144531-38.859375-38.855469h77.71875zm-14.144531 14.144531-38.855469 38.855469v-77.714844zm0 0"/>
    <path d="m238.003906 20c5.523438 0 10-4.476562 10-10s-4.476562-10-10-10h-.007812c-5.523438 0-9.996094 4.476562-9.996094 10s4.480469 10 10.003906 10zm0 0"/>
    <path d="m359 412h-.007812c-5.523438 0-9.996094 4.476562-9.996094 10 0 5.519531 4.480468 10 10.003906 10s10-4.480469 10-10c0-5.523438-4.476562-10-10-10zm0 0"/>
</svg>