<?xml version="1.0" encoding="iso-8859-1"?>
<!-- Generator: Adobe Illustrator 19.0.0, SVG Export Plug-In . SVG Version: 6.00 Build 0)  -->
<svg version="1.1" id="Layer_1" 
	xmlns="http://www.w3.org/2000/svg" 
	xmlns:xlink="http://www.w3.org/1999/xlink" x="0px" y="0px" viewBox="0 0 512 512" width="512" height="512" style="enable-background:new 0 0 512 512;" xml:space="preserve">
	<path style="fill:#63ABA1;" d="M149.842,210.617l-18.704-32.724c-8.911-15.611-30.916-28.378-48.891-28.378H49.566v136.17
	l130.723-21.787L149.842,210.617z"/>
	<path style="fill:#83C49A;" d="M98.457,177.893l49.152,86.005l-98.043,21.787L8.715,263.898V149.515h40.851
	C67.54,149.515,89.546,162.282,98.457,177.893z"/>
	<polygon style="fill:#FFE0A2;" points="421.028,152.783 370.918,190.366 370.918,223.047 471.139,223.047 471.139,190.366 "/>
	<polygon style="fill:#FFFFFF;" points="421.028,185.464 370.918,223.047 370.918,285.685 471.139,285.685 471.139,223.047 "/>
	<path style="fill:#D3552B;" d="M421.028,272.068c-4.512,0-8.17-3.657-8.17-8.17v-32.681c0-4.513,3.658-8.17,8.17-8.17
	c4.512,0,8.17,3.657,8.17,8.17v32.681C429.199,268.411,425.541,272.068,421.028,272.068z"/>
	<polygon style="fill:#A3DC93;" points="472.238,263.898 450.451,385.906 472.238,507.915 504.919,507.915 504.919,263.898 "/>
	<rect x="9.26" y="263.898" style="fill:#CAED73;" width="462.979" height="244.017"/>
	<polygon style="fill:#FFE0A2;" points="92.061,296.579 41.95,334.162 41.95,366.843 142.172,366.843 142.172,334.162 "/>
	<polygon style="fill:#FFFFFF;" points="92.061,329.26 41.95,366.843 41.95,407.694 142.172,407.694 142.172,366.843 "/>
	<path style="fill:#D3552B;" d="M92.061,415.864c-4.512,0-8.17-3.657-8.17-8.17v-32.681c0-4.513,3.658-8.17,8.17-8.17
	c4.512,0,8.17,3.657,8.17,8.17v32.681C100.231,412.207,96.573,415.864,92.061,415.864z"/>
	<polygon style="fill:#FFE0A2;" points="142.172,375.013 92.061,412.596 92.061,445.277 192.282,445.277 192.282,412.596 "/>
	<polygon style="fill:#FFFFFF;" points="142.172,407.694 92.061,445.277 92.061,486.128 192.282,486.128 192.282,445.277 "/>
	<path style="fill:#D3552B;" d="M142.172,494.298c-4.512,0-8.17-3.657-8.17-8.17v-32.681c0-4.513,3.658-8.17,8.17-8.17
	s8.17,3.657,8.17,8.17v32.681C150.342,490.641,146.684,494.298,142.172,494.298z"/>
	<polygon style="fill:#FFE0A2;" points="294.663,377.191 294.663,420.766 414.492,475.234 447.173,475.234 447.173,377.191 "/>
	<polygon style="fill:#FFFFFF;" points="305.556,420.766 316.45,475.234 414.492,475.234 414.492,420.766 "/>
	<polygon style="fill:#D3552B;" points="436.28,342.332 316.45,342.332 316.45,388.085 458.067,388.085 "/>
	<polygon style="fill:#FFE0A2;" points="251.088,244.289 316.45,244.289 316.45,190.366 283.769,165.855 251.088,190.366 "/>
	<polygon style="fill:#FFFFFF;" points="251.088,475.234 316.45,475.234 316.45,223.047 283.769,198.536 251.088,223.047 "/>
	<path style="fill:#D3552B;" d="M283.769,483.404c-4.512,0-8.17-3.657-8.17-8.17v-32.681c0-4.513,3.658-8.17,8.17-8.17
	c4.512,0,8.17,3.657,8.17,8.17v32.681C291.939,479.747,288.281,483.404,283.769,483.404z"/>
	<rect x="251.087" y="296.579" style="fill:#FFE0A2;" width="65.362" height="32.681"/>
	<g>
		<path style="fill:#B3EFFF;" d="M436.289,66.723h-32.681V12.255h32.681c15.044,0,27.234,12.19,27.234,27.234
		S451.333,66.723,436.289,66.723z"/>
		<path style="fill:#B3EFFF;" d="M297.396,66.723l-59.915-21.787v49.021h32.681C285.206,93.957,297.396,81.767,297.396,66.723z"/>
	</g>
	<path style="fill:#D9F7FF;" d="M403.608,66.723c15.044,0,27.234-12.19,27.234-27.234s-12.19-27.234-27.234-27.234H212.97
	c-15.044,0-27.234,12.19-27.234,27.234H76.8c-15.044,0-27.234,12.19-27.234,27.234S61.756,93.957,76.8,93.957h160.681
	c15.044,0,27.234-12.19,27.234-27.234h32.681H403.608z"/>
	<path d="M503.83,255.728h-24.52v-49.501c0.883,0.313,1.801,0.479,2.717,0.479c2.484,0,4.938-1.127,6.543-3.268
	c2.707-3.609,1.975-8.731-1.634-11.438l-61.004-45.753c-2.905-2.179-6.899-2.179-9.804,0L355.122,192
	c-3.609,2.707-4.341,7.829-1.634,11.438c2.196,2.929,5.982,3.962,9.26,2.803v49.486H324.62v-49.501
	c0.883,0.313,1.801,0.479,2.717,0.479c2.484,0,4.938-1.127,6.543-3.268c2.707-3.609,1.976-8.731-1.634-11.438l-40.306-30.23v-39.489
	c0-4.513-3.658-8.17-8.17-8.17c-4.512,0-8.17,3.657-8.17,8.17v39.489L235.292,192c-3.61,2.707-4.341,7.829-1.634,11.438
	c2.197,2.929,5.982,3.962,9.26,2.803v49.486H185.03l-46.795-81.893c-10.412-18.22-35.006-32.49-55.989-32.49H8.715
	c-4.512,0-8.17,3.657-8.17,8.17s3.658,8.17,8.17,8.17h73.532c15.144,0,34.288,11.108,41.802,24.258l42.163,73.785H8.17
	c-4.512,0-8.17,3.657-8.17,8.17c0,4.513,3.658,8.17,8.17,8.17h172.11c0.033,0,62.637,0,62.637,0v16.34h-2.723
	c-4.512,0-8.17,3.657-8.17,8.17c0,4.513,3.658,8.17,8.17,8.17h2.723v170.485c0,4.513,3.658,8.17,8.17,8.17h196.085
	c4.512,0,8.17-3.657,8.17-8.17v-78.979h2.723c2.804,0,5.412-1.437,6.909-3.808c1.497-2.37,1.673-5.342,0.468-7.875l-21.787-45.753
	c-1.355-2.844-4.226-4.657-7.376-4.657h-111.66v-29.413h2.723c4.512,0,8.17-3.657,8.17-8.17c0-4.513-3.658-8.17-8.17-8.17h-2.723
	v-16.34H503.83c4.512,0,8.17-3.657,8.17-8.17C512,259.385,508.342,255.728,503.83,255.728z M439.003,467.064H324.62v-70.809h114.383
	V467.064z M431.12,350.502l14.006,29.413H324.62v-29.413H431.12z M308.28,467.064h-49.021V304.749h49.021V467.064z M259.258,288.409
	v-93.957l24.511-18.383l24.511,18.383v93.957H259.258z M379.088,194.451l41.94-31.455l41.94,31.455v61.277h-33.77v-24.511
	c0-4.513-3.658-8.17-8.17-8.17c-4.512,0-8.17,3.657-8.17,8.17v24.511h-33.77V194.451z"/>
	<path d="M208.078,414.23l-57.736-43.302v-20.905c0.883,0.313,1.801,0.479,2.717,0.479c2.484,0,4.938-1.127,6.543-3.268
	c2.707-3.609,1.975-8.731-1.634-11.438l-61.004-45.753c-2.905-2.179-6.899-2.179-9.804,0l-61.004,45.753
	c-3.609,2.707-4.341,7.829-1.634,11.438c2.197,2.929,5.982,3.963,9.26,2.803v57.657c0,4.513,3.658,8.17,8.17,8.17h10.894
	c4.512,0,8.17-3.657,8.17-8.17s-3.658-8.17-8.17-8.17H50.12v-61.277l41.94-31.455l41.94,31.455v32.681l-33.77,25.328v-21.243
	c0-4.513-3.658-8.17-8.17-8.17c-4.512,0-8.17,3.657-8.17,8.17v32.681c0,0.266,0.015,0.528,0.039,0.788l-7.665,5.749
	c-3.609,2.707-4.341,7.829-1.634,11.438c2.196,2.929,5.982,3.962,9.26,2.802v57.658c0,4.513,3.658,8.17,8.17,8.17h100.221
	c4.512,0,8.17-3.657,8.17-8.17v-57.671c0.883,0.313,1.801,0.479,2.717,0.479c2.484,0,4.938-1.128,6.543-3.268
	C212.42,422.059,211.688,416.937,208.078,414.23z M150.342,477.957v-24.511c0-4.513-3.658-8.17-8.17-8.17s-8.17,3.657-8.17,8.17
	v24.511h-33.77v-61.277l41.94-31.455l41.94,31.455v61.277H150.342z"/>
	<path d="M76.8,102.128h193.362c16.711,0,30.755-11.638,34.452-27.234h131.675c19.521,0,35.404-15.882,35.404-35.404
	S455.811,4.085,436.289,4.085h-32.681c-4.512,0-8.17,3.657-8.17,8.17s3.658,8.17,8.17,8.17h32.681
	c10.511,0,19.064,8.553,19.064,19.064s-8.553,19.064-19.064,19.064H297.396c-4.512,0-8.17,3.657-8.17,8.17
	c0,10.511-8.553,19.064-19.064,19.064H76.8c-10.511,0-19.064-8.553-19.064-19.064S66.289,47.66,76.8,47.66h108.936
	c4.512,0,8.17-3.657,8.17-8.17c0-10.511,8.553-19.064,19.064-19.064h157.957c4.512,0,8.17-3.657,8.17-8.17s-3.658-8.17-8.17-8.17
	H212.97c-16.711,0-30.755,11.638-34.452,27.234H76.8c-19.521,0-35.404,15.882-35.404,35.404S57.279,102.128,76.8,102.128z"/>
	<path d="M41.94,456.17c-4.512,0-8.17,3.657-8.17,8.17v10.894c0,4.513,3.658,8.17,8.17,8.17s8.17-3.657,8.17-8.17V464.34
	C50.111,459.827,46.453,456.17,41.94,456.17z"/>
	<path d="M205.345,336.34c-4.512,0-8.17,3.657-8.17,8.17v10.894c0,4.513,3.658,8.17,8.17,8.17c4.512,0,8.17-3.657,8.17-8.17v-10.894
	C213.515,339.997,209.857,336.34,205.345,336.34z"/>
	<path d="M472.238,288.409c-4.512,0-8.17,3.657-8.17,8.17v10.894c0,4.513,3.658,8.17,8.17,8.17s8.17-3.657,8.17-8.17v-10.894
	C480.409,292.065,476.75,288.409,472.238,288.409z"/>
	<circle cx="283.768" cy="217.6" r="8.17"/>
	<g>
	</g>
	<g>
	</g>
	<g>
	</g>
	<g>
	</g>
	<g>
	</g>
	<g>
	</g>
	<g>
	</g>
	<g>
	</g>
	<g>
	</g>
	<g>
	</g>
	<g>
	</g>
	<g>
	</g>
	<g>
	</g>
	<g>
	</g>
	<g>
	</g>
</svg>
