<svg id="Layer_3" enable-background="new 0 0 64 64" height="512" viewBox="0 0 64 64" width="512" xmlns="http://www.w3.org/2000/svg"><path d="m22 22 1.088 1.632c.595.892.912 1.94.912 3.012 0 2.057 1.162 3.937 3.002 4.857l4.998 2.499v-2c0-3.246-1.053-6.404-3-9" fill="#4d5d7a"/><path d="m55 14h1.275c1.777 0 3.514.526 4.992 1.512l.733.488v-.231c0-4.242-2.07-8.217-5.545-10.65l-.065-.046c-2.857-2-6.261-3.073-9.749-3.073h-13.641" fill="#4d5d7a"/><path d="m8 12.918v.082c0 1.289.505 2.506 1.404 3.405l.069.069c2.309 2.308 5.202 3.946 8.37 4.738l.112.028c4.68 1.17 9.486 1.762 14.31 1.762h10.058c5.896-.002 10.677 4.779 10.677 10.677 0 5.34-3.945 9.859-9.236 10.581l-12.764 1.74 2.446 2.935c1.618 1.942 4.016 3.065 6.543 3.065 1.322 0 2.626-.308 3.809-.899l2.202-1.101-2.094 2.931c-1.89 2.646-2.906 5.817-2.906 9.069l.351-.096c6.667-1.818 12.013-6.8 14.296-13.323l.546-1.561c1.858-5.309 2.807-10.893 2.807-16.517v-2.503c0-14.359-11.641-26-26-26h-.378c-6.96 0-13.799 1.816-19.842 5.268-.811.463-1.578.901-2.25 1.285-1.568.895-2.53 2.56-2.53 4.365z" fill="#8892a0"/><circle cx="22" cy="10" fill="#4d5d7a" r="2"/><g fill="#a1cdfb"><path d="m27 48c1.657 0 3 1.343 3 3 0 1.657-1.343 3-3 3-1.889 0-3.667.889-4.8 2.4l-4.2 5.6.342-3.419c.41-4.097 2.891-7.698 6.574-9.539z"/><path d="m25 36c1.657 0 3 1.343 3 3 0 1.657-1.343 3-3 3-1.889 0-3.667.889-4.8 2.4l-4.2 5.6.342-3.419c.41-4.097 2.891-7.698 6.574-9.539z"/><path d="m5 48c-1.657 0-3 1.343-3 3 0 1.657 1.343 3 3 3 1.889 0 3.667.889 4.8 2.4l4.2 5.6-.342-3.419c-.41-4.097-2.891-7.698-6.574-9.539z"/></g><path d="m41 63c-.217 0-.431-.07-.606-.205-.248-.19-.394-.483-.394-.795 0-3.413 1.027-6.687 2.974-9.481-.961.317-1.974.481-2.985.481-2.833 0-5.497-1.248-7.312-3.424l-2.446-2.936c-.232-.28-.295-.663-.164-1.003.132-.339.438-.579.798-.629l12.765-1.74c4.771-.65 8.37-4.773 8.37-9.59 0-5.336-4.342-9.678-9.679-9.678h-10.057c-4.9 0-9.797-.603-14.552-1.792l-.106-.025c-3.35-.838-6.404-2.567-8.84-5.003-1.163-1.162-1.766-2.622-1.766-4.18v-.082c0-2.159 1.162-4.165 3.033-5.233l2.249-1.285c6.186-3.533 13.218-5.4 20.34-5.4h.378c14.888 0 27 12.112 27 27v2.503c0 5.75-.963 11.419-2.862 16.848l-.548 1.562c-2.392 6.834-7.99 12.052-14.977 13.957l-.35.096c-.086.022-.175.034-.263.034zm5-14c.285 0 .565.122.76.351.299.349.321.856.054 1.23l-2.094 2.932c-1.516 2.121-2.422 4.564-2.658 7.135 5.895-1.935 10.579-6.504 12.642-12.396l.547-1.562c1.823-5.216 2.749-10.663 2.749-16.187v-2.503c0-13.785-11.215-25-25-25h-.378c-6.774 0-13.464 1.776-19.347 5.136l-2.251 1.285c-1.248.714-2.024 2.054-2.024 3.497v.082c0 1.023.395 1.981 1.11 2.697 2.249 2.248 4.982 3.795 7.974 4.544l.106.025c4.603 1.151 9.336 1.734 14.074 1.734h10.058c6.439 0 11.678 5.239 11.678 11.679 0 5.812-4.342 10.786-10.101 11.572l-10.976 1.496 1.291 1.548c1.433 1.72 3.538 2.705 5.775 2.705 1.161 0 2.323-.274 3.362-.794l2.201-1.101c.143-.071.297-.105.448-.105z"/><path d="m22 13c-1.654 0-3-1.346-3-3s1.346-3 3-3 3 1.346 3 3-1.346 3-3 3zm0-4c-.552 0-1 .448-1 1s.448 1 1 1 1-.448 1-1-.448-1-1-1z"/><path d="m32 35c-.153 0-.306-.035-.447-.105l-4.998-2.499c-2.193-1.097-3.555-3.3-3.555-5.751 0-.877-.258-1.728-.744-2.458l-1.088-1.632 1.664-1.109 1.088 1.632c.707 1.061 1.08 2.294 1.08 3.567 0 1.688.938 3.207 2.449 3.962l3.551 1.775v-.382c0-3.009-.994-5.992-2.8-8.4l1.6-1.199c2.063 2.751 3.2 6.161 3.2 9.6v2c0 .347-.18.668-.475.851-.16.098-.342.148-.525.148z"/><path d="m62 17c-.194 0-.388-.057-.555-.168l-.732-.488c-1.319-.879-2.854-1.344-4.438-1.344h-1.275v-2h1.275c1.616 0 3.19.387 4.611 1.127-.453-3.282-2.253-6.264-5.005-8.189-2.769-1.938-5.941-2.938-9.239-2.938h-13.642v-2h13.642c3.711 0 7.28 1.125 10.321 3.254 3.805 2.662 6.037 6.95 6.037 11.515v.231c0 .369-.203.708-.528.882-.148.079-.31.118-.472.118z"/><path d="m29.813 19.581-1.627-1.162.529-.741c2.804-3.923 4.285-8.546 4.285-13.369v-2.309h2v2.309c0 5.242-1.61 10.268-4.657 14.531z"/><path d="m52.427 21.819-1.22-.854c-5.575-3.903-12.119-5.965-18.925-5.965h-.282v-2h.282c7.219 0 14.159 2.188 20.071 6.327l1.22.854z"/><path d="m18 63c-.122 0-.245-.022-.363-.068-.418-.163-.677-.585-.632-1.031l.342-3.419c.447-4.464 3.109-8.327 7.122-10.334l2.084-1.042c.138-.07.292-.106.447-.106 2.206 0 4 1.794 4 4s-1.794 4-4 4c-1.565 0-3.061.748-4 2l-4.2 5.6c-.194.257-.492.4-.8.4zm9.214-13.988-1.851.925c-3.35 1.676-5.588 4.88-6.011 8.593l2.048-2.729c1.315-1.754 3.409-2.801 5.6-2.801 1.103 0 2-.897 2-2 0-1.03-.784-1.882-1.786-1.988z"/><path d="m16 51c-.122 0-.245-.022-.363-.068-.418-.163-.677-.585-.632-1.031l.342-3.419c.447-4.464 3.109-8.327 7.122-10.334l2.084-1.042c.138-.07.292-.106.447-.106 2.206 0 4 1.794 4 4s-1.794 4-4 4c-1.565 0-3.061.748-4 2l-4.2 5.6c-.194.257-.492.4-.8.4zm9.214-13.988-1.851.925c-3.35 1.676-5.588 4.88-6.011 8.593l2.048-2.729c1.315-1.754 3.409-2.801 5.6-2.801 1.103 0 2-.897 2-2 0-1.03-.784-1.882-1.786-1.988z"/><path d="m14 63c-.308 0-.606-.143-.8-.4l-4.2-5.6c-.939-1.252-2.435-2-4-2-2.206 0-4-1.794-4-4s1.794-4 4-4c.155 0 .309.036.447.105l2.084 1.042c4.013 2.007 6.675 5.87 7.122 10.334l.342 3.419c.045.446-.214.868-.632 1.031-.118.047-.241.069-.363.069zm-9.214-13.988c-1.002.106-1.786.958-1.786 1.988 0 1.103.897 2 2 2 2.191 0 4.285 1.047 5.6 2.801l2.048 2.729c-.423-3.713-2.66-6.917-6.011-8.593z"/></svg>