<?xml version="1.0" encoding="UTF-8" standalone="no"?>
<svg
   xmlns:dc="http://purl.org/dc/elements/1.1/"
   xmlns:cc="http://creativecommons.org/ns#"
   xmlns:rdf="http://www.w3.org/1999/02/22-rdf-syntax-ns#"
   xmlns:svg="http://www.w3.org/2000/svg"
   xmlns="http://www.w3.org/2000/svg"
   xmlns:sodipodi="http://sodipodi.sourceforge.net/DTD/sodipodi-0.dtd"
   xmlns:inkscape="http://www.inkscape.org/namespaces/inkscape"
   id="Layer_1"
   enable-background="new 0 0 512 512"
   height="512"
   viewBox="0 0 512 512"
   width="512"
   version="1.1"
   sodipodi:docname="furs-edited.svg"
   inkscape:version="0.92.3 (2405546, 2018-03-11)">
  <metadata
     id="metadata41">
    <rdf:RDF>
      <cc:Work
         rdf:about="">
        <dc:format>image/svg+xml</dc:format>
        <dc:type
           rdf:resource="http://purl.org/dc/dcmitype/StillImage" />
        <dc:title />
      </cc:Work>
    </rdf:RDF>
  </metadata>
  <defs
     id="defs39" />
  <sodipodi:namedview
     pagecolor="#ffffff"
     bordercolor="#666666"
     borderopacity="1"
     objecttolerance="10"
     gridtolerance="10"
     guidetolerance="10"
     inkscape:pageopacity="0"
     inkscape:pageshadow="2"
     inkscape:window-width="1853"
     inkscape:window-height="1025"
     id="namedview37"
     showgrid="false"
     inkscape:zoom="0.921875"
     inkscape:cx="179.71044"
     inkscape:cy="341.32187"
     inkscape:window-x="67"
     inkscape:window-y="27"
     inkscape:window-maximized="1"
     inkscape:current-layer="Layer_1" />
  <path
     style="fill:#000000;fill-opacity:1;stroke-width:0.96709126"
     d="M 254.6901,0.03769577 C 216.64445,-0.75082545 181.64603,29.653707 176.05316,66.471519 c -3.1255,13.292234 -0.56952,28.076113 -7.38702,40.340641 -7.97902,9.72302 -21.77889,9.45057 -33.20544,8.40898 -36.134601,0 -72.269218,0 -108.403832,0 0,33.00723 0,66.01448 0,99.02171 26.382801,8.01462 55.999273,15.57552 73.044332,38.71322 26.03313,33.48312 15.67535,88.07389 -21.793963,109.07738 -14.533216,9.06067 -31.763303,11.96805 -47.400823,18.23677 -7.044812,5.99654 -2.622622,15.91482 -3.849546,23.65579 0,25.30009 0,50.60018 0,75.90027 62.443534,2.58263 126.803382,-7.29935 186.866772,13.81301 14.57443,4.92908 28.57721,11.09894 42.14985,18.33801 47.0151,-26.52262 102.46203,-34.99216 155.94755,-31.97291 24.31577,0 48.63154,0 72.9473,0 0,-32.9691 0,-65.93822 0,-98.90733 -25.30567,-8.49828 -53.96458,-13.96691 -70.95917,-36.12789 -25.13494,-30.33116 -21.48605,-80.97656 10.84814,-105.0928 15.98955,-13.183 36.56692,-17.97452 55.64874,-24.68857 7.63933,-6.24028 3.40214,-16.79737 4.46229,-24.96822 0,-24.95698 0,-49.91396 0,-74.87094 -44.5458,-1.57344 -89.39045,2.54072 -133.69516,-2.1674 C 340.43687,107.93483 337.05654,94.871949 338.41345,83.913843 336.59602,55.458639 323.76992,25.362805 297.54317,10.919695 284.62721,3.5184298 269.61997,-0.24279853 254.6901,0.03769577 Z"
     id="path4644"
     inkscape:connector-curvature="0" />
  <g
     id="g4662"
     style="fill:#000000;fill-opacity:1"
     transform="matrix(0.97427973,0,0,0.95995592,6.596994,9.626005)">
    <path
       id="path4646"
       d="m 394.3,275.61 c -12.55,46.1 12.74,93.93 57.6,108.88 l 29.1,9.7 V 480 h -97.92 c -41.27,0 -82.89,9.91 -120.37,28.65 L 256,512 V 0 c 29.09,0 54.8,16.18 65.52,41.21 6.29,14.69 9.48,30.24 9.48,46.22 0,17.96 14.61,32.57 32.57,32.57 H 481 v 85.81 l -25.7,8.57 c -30.52,10.17 -53.32,33.06 -61,61.23 z"
       style="fill:#000000;fill-opacity:1"
       inkscape:connector-curvature="0" />
    <path
       id="path4648"
       d="m 241,390 h 30 v 60 h -30 z"
       style="fill:#000000;fill-opacity:1"
       inkscape:connector-curvature="0" />
    <path
       id="path4650"
       d="m 241,300 h 30 v 60 h -30 z"
       style="fill:#000000;fill-opacity:1"
       inkscape:connector-curvature="0" />
    <path
       id="path4652"
       d="m 241,210 h 30 v 60 h -30 z"
       style="fill:#000000;fill-opacity:1"
       inkscape:connector-curvature="0" />
    <path
       id="path4654"
       d="m 241,120 h 30 v 60 h -30 z"
       style="fill:#000000;fill-opacity:1"
       inkscape:connector-curvature="0" />
    <path
       id="path4656"
       d="m 181,180 h 30 v 60 h -30 z"
       style="fill:#000000;fill-opacity:1"
       inkscape:connector-curvature="0" />
    <path
       id="path4658"
       d="m 181,270 h 30 v 60 h -30 z"
       style="fill:#000000;fill-opacity:1"
       inkscape:connector-curvature="0" />
    <path
       id="path4660"
       d="m 181,360 h 30 v 60 h -30 z"
       style="fill:#000000;fill-opacity:1"
       inkscape:connector-curvature="0" />
  </g>
  <path
     style="fill:#000000;fill-opacity:1;stroke-width:0.96709126"
     d="m 290.11239,347.53049 c 0,24.95885 0,49.9177 0,74.87656 16.238,0 32.47598,0 48.71399,0 0,-25.59883 0,-51.19764 0,-76.79647 -16.23801,0 -32.47599,0 -48.71399,0 v 0.95995 z"
     id="path4664"
     inkscape:connector-curvature="0" />
  <path
     style="fill:#000000;fill-opacity:1;stroke-width:0.96709126"
     d="m 290.11239,261.13446 c 0,24.95885 0,49.9177 0,74.87655 16.238,0 32.47598,0 48.71399,0 0,-25.59882 0,-51.19764 0,-76.79647 -16.23801,0 -32.47599,0 -48.71399,0 v 0.95996 z"
     id="path4666"
     inkscape:connector-curvature="0" />
  <path
     style="fill:#000000;fill-opacity:1;stroke-width:0.96709126"
     d="m 290.11239,174.73842 c 0,24.95886 0,49.91771 0,74.87657 16.238,0 32.47598,0 48.71399,0 0,-25.59883 0,-51.19765 0,-76.79648 -16.23801,0 -32.47599,0 -48.71399,0 v 0.95996 z"
     id="path4668"
     inkscape:connector-curvature="0" />
  <path
     style="fill:#000000;fill-opacity:1;stroke-width:0.96709126"
     d="m 246.2698,117.14107 c 0,24.95885 0,49.9177 0,74.87656 11.3666,0 22.7332,0 34.09979,0 0,-25.59883 0,-51.19765 0,-76.79648 -11.36659,0 -22.73319,0 -34.09979,0 v 0.95996 z"
     id="path4670"
     inkscape:connector-curvature="0" />
  <path
     style="fill:#000000;fill-opacity:1;stroke-width:0.96709126"
     d="m 246.2698,203.5371 c 0,24.95885 0,49.9177 0,74.87656 11.3666,0 22.7332,0 34.09979,0 0,-25.59882 0,-51.19764 0,-76.79647 -11.36659,0 -22.73319,0 -34.09979,0 v 0.95995 z"
     id="path4672"
     inkscape:connector-curvature="0" />
  <path
     style="fill:#000000;fill-opacity:1;stroke-width:0.96709126"
     d="m 246.2698,289.93314 c 0,24.95885 0,49.9177 0,74.87655 11.3666,0 22.7332,0 34.09979,0 0,-25.59882 0,-51.19764 0,-76.79647 -11.36659,0 -22.73319,0 -34.09979,0 v 0.95996 z"
     id="path4674"
     inkscape:connector-curvature="0" />
  <path
     style="fill:#000000;fill-opacity:1;stroke-width:0.96709126"
     d="m 246.2698,376.32917 c 0,24.95885 0,49.9177 0,74.87655 11.3666,0 22.7332,0 34.09979,0 0,-25.59883 0,-51.19763 0,-76.79646 -11.36659,0 -22.73319,0 -34.09979,0 v 0.95995 z"
     id="path4676"
     inkscape:connector-curvature="0" />
  <path
     d="m 450.18655,215.42134 25.03899,-8.22682 V 124.8207 H 360.81587 c -17.49806,0 -31.73229,-14.02495 -31.73229,-31.265749 0,-15.340096 -3.10795,-30.26741 -9.23617,-44.369163 C 309.40313,25.158092 284.3544,9.626005 256.0126,9.626005 c -28.3418,0 -53.39053,15.532087 -63.83481,39.559783 -6.12822,14.101753 -9.23617,29.029067 -9.23617,44.369163 0,17.240799 -14.23422,31.265749 -31.73229,31.265749 H 36.799665 v 82.37382 l 25.038989,8.22682 c 29.735017,9.76275 51.948606,31.73615 59.431066,58.7781 12.22721,44.25397 -12.41232,90.16866 -56.108772,104.52001 l -28.361283,9.31157 v 82.37382 h 95.401465 c 40.20852,0 80.75805,9.51316 117.27406,27.50273 l 6.53741,3.21586 6.53742,-3.21586 c 36.51601,-17.98957 77.06552,-27.50273 117.27404,-27.50273 h 95.40148 V 388.03102 L 446.874,378.71945 c -43.70619,-14.35135 -68.34573,-60.26604 -56.11852,-104.52001 7.48247,-27.04195 29.69605,-49.01535 59.43107,-58.7781 z"
     id="path2"
     inkscape:connector-curvature="0"
     style="fill:#ffb64c;stroke-width:0.96709126" />
  <g
     id="g20"
     style="fill:#ff9100"
     transform="matrix(0.97427973,0,0,0.95995592,6.596994,9.626005)">
    <path
       d="m 394.3,275.61 c -12.55,46.1 12.74,93.93 57.6,108.88 l 29.1,9.7 V 480 h -97.92 c -41.27,0 -82.89,9.91 -120.37,28.65 L 256,512 V 0 c 29.09,0 54.8,16.18 65.52,41.21 6.29,14.69 9.48,30.24 9.48,46.22 0,17.96 14.61,32.57 32.57,32.57 H 481 v 85.81 l -25.7,8.57 c -30.52,10.17 -53.32,33.06 -61,61.23 z"
       id="path4"
       inkscape:connector-curvature="0" />
    <path
       d="m 241,390 h 30 v 60 h -30 z"
       id="path6"
       inkscape:connector-curvature="0" />
    <path
       d="m 241,300 h 30 v 60 h -30 z"
       id="path8"
       inkscape:connector-curvature="0" />
    <path
       d="m 241,210 h 30 v 60 h -30 z"
       id="path10"
       inkscape:connector-curvature="0" />
    <path
       d="m 241,120 h 30 v 60 h -30 z"
       id="path12"
       inkscape:connector-curvature="0" />
    <path
       d="m 181,180 h 30 v 60 h -30 z"
       id="path14"
       inkscape:connector-curvature="0" />
    <path
       d="m 181,270 h 30 v 60 h -30 z"
       id="path16"
       inkscape:connector-curvature="0" />
    <path
       d="m 181,360 h 30 v 60 h -30 z"
       id="path18"
       inkscape:connector-curvature="0" />
  </g>
  <path
     d="m 299.85519,355.21013 h 29.22839 v 57.59736 h -29.22839 z"
     id="path22"
     inkscape:connector-curvature="0"
     style="fill:#ff641a;stroke-width:0.96709126" />
  <path
     d="m 299.85519,268.8141 h 29.22839 v 57.59736 h -29.22839 z"
     id="path24"
     inkscape:connector-curvature="0"
     style="fill:#ff641a;stroke-width:0.96709126" />
  <path
     d="m 299.85519,182.41807 h 29.22839 v 57.59735 h -29.22839 z"
     id="path26"
     inkscape:connector-curvature="0"
     style="fill:#ff641a;stroke-width:0.96709126" />
  <path
     d="m 256.0126,124.82071 h 14.6142 v 57.59736 h -14.6142 z"
     id="path28"
     inkscape:connector-curvature="0"
     style="fill:#ff641a;stroke-width:0.96709126" />
  <path
     d="m 256.0126,211.21674 h 14.6142 v 57.59736 h -14.6142 z"
     id="path30"
     inkscape:connector-curvature="0"
     style="fill:#ff641a;stroke-width:0.96709126" />
  <path
     d="m 256.0126,297.61278 h 14.6142 v 57.59735 h -14.6142 z"
     id="path32"
     inkscape:connector-curvature="0"
     style="fill:#ff641a;stroke-width:0.96709126" />
  <path
     d="m 256.0126,384.00881 h 14.6142 v 57.59736 h -14.6142 z"
     id="path34"
     inkscape:connector-curvature="0"
     style="fill:#ff641a;stroke-width:0.96709126" />
</svg>
