<svg id="Layer_1" enable-background="new 0 0 512 512" height="512" viewBox="0 0 512 512" width="512" xmlns="http://www.w3.org/2000/svg"><path d="m107.019 14.338-98.617 228.946c-1.585 3.679-1.054 7.927 1.387 11.104l188.394 245.191c5.53 7.198 16.908 5.048 19.425-3.671l85.738-296.899c1.111-3.848.053-7.995-2.766-10.842l-175.515-177.237c-5.523-5.577-14.942-3.798-18.046 3.408z" fill="#91dfff"/><path d="m300.58 188.167-175.515-177.237c-5.523-5.577-14.942-3.798-18.046 3.408l-9.202 21.364 150.983 152.465c2.819 2.847 3.877 6.994 2.766 10.842l-77.67 268.961 24.287 31.609c5.53 7.198 16.908 5.048 19.425-3.671l85.738-296.899c1.111-3.848.053-7.995-2.766-10.842z" fill="#78d7ff"/><path d="m116.63 8.338 113.695 254.228-129.332 24.397 12.933-278.113c.069-1.488 2.095-1.872 2.704-.512z" fill="#c7efff"/><path d="m303.553 193.836-73.229 68.73-129.332 24.397-93.277-37.263c.316 1.676.998 3.288 2.073 4.688l188.394 245.191c5.53 7.198 16.908 5.048 19.425-3.671l85.738-296.899c.496-1.714.537-3.482.208-5.173z" fill="#c7efff"/><path d="m303.553 193.836-69.247 64.994-60.399 209.154 24.276 31.595c5.53 7.198 16.908 5.048 19.425-3.671l85.738-296.899c.495-1.714.536-3.482.207-5.173z" fill="#b5e3f7"/><path d="m204.336 501.981-103.344-215.018 129.332-24.397-17.569 237.821c-.335 4.529-6.452 5.687-8.419 1.594z" fill="#91dfff"/><path d="m432.012 462.243-66.73 40.223c-6.772 4.082-15.576 1.822-19.544-5.018l-39.096-67.397c-1.862-3.21-2.389-7.024-1.466-10.619l65.643-255.641c1.034-4.028 3.788-7.396 7.529-9.211l64.427-31.255c6.225-3.02 13.721-1.095 17.721 4.55l41.399 58.428c2.404 3.393 3.194 7.672 2.16 11.699l-65.643 255.641c-.922 3.596-3.221 6.684-6.4 8.6z" fill="#ff8370"/><path d="m501.896 186.304-41.399-58.428c-4-5.645-11.496-7.57-17.721-4.55l-16.375 7.944 38.994 55.035c2.404 3.393 3.194 7.672 2.16 11.699l-65.643 255.641c-.923 3.595-3.222 6.683-6.4 8.599l-52.01 31.35 2.236 3.854c3.968 6.84 12.771 9.101 19.544 5.018l66.73-40.223c3.179-1.916 5.477-5.004 6.4-8.599l65.643-255.641c1.035-4.028.245-8.306-2.159-11.699z" fill="#ff8370"/><g fill="#ff624a"><path d="m449.683 123.335c.661-.838 1.516-1.182 2.563-1.032-3.165-.758-6.54-.399-9.47 1.022l-64.427 31.255c-2.404 1.166-4.392 2.979-5.786 5.191l33.837 22.034z"/><path d="m501.896 186.304-41.399-58.428c-1.883-2.657-4.668-4.598-7.806-5.458.99.373 1.573 1.086 1.749 2.139l9.756 72.1 40.297-1.713c.099-3.058-.796-6.098-2.597-8.64z"/><path d="m352.148 501.351-7.501-79.055-39.856 1.763c.164 2.092.778 4.143 1.851 5.993l39.096 67.397c1.968 3.393 5.127 5.655 8.636 6.579-1.134-.325-2.092-1.27-2.226-2.677z"/><path d="m357.786 502.799c-.795 1.169-2.09 1.534-3.24 1.272 3.52.881 7.378.42 10.737-1.604l66.73-40.223c1.831-1.104 3.357-2.605 4.509-4.359l-34.079-20.736z"/><path d="m280.275 279.64h248.293v59.673h-248.293z" transform="matrix(.249 -.969 .969 .249 4.027 624.146)"/></g><path d="m116.63 8.338c-.608-1.36-2.635-.977-2.704.512l-1.929 41.473 43.44 44.791z" fill="#b5e3f7"/><path d="m179.195 449.672 25.141 52.309c1.967 4.093 8.084 2.935 8.419-1.594l16.572-224.316z" fill="#78d7ff"/><path d="m305.886 182.805-175.532-177.254c-9.144-9.233-25.117-6.236-30.266 5.72l-98.626 228.966c-2.601 6.037-1.674 13.434 2.328 18.643l188.412 245.215c9.415 12.251 28.301 8.66 32.581-6.16l53.692-185.927c2.685-9.296-11.729-13.458-14.413-4.162l-39.772 137.726 13.269-179.614 52.951-49.699-16.051 55.584c-2.685 9.295 11.729 13.457 14.413 4.162l21.658-74.998c1.685-5.836-.286-13.801-4.644-18.202zm-210.431 109.966 78.02 162.33-145.413-189.253zm110.634 195.557-94.145-195.88 110.151-20.779zm26.752-238.516-97.41-217.814 158.716 160.274zm-127.813-212.09-2.178 46.835c-.449 9.662 14.536 10.373 14.985.697l2.353-50.596 99.381 222.222-16.755 3.161-93.93 17.719 7.278-156.501c.449-9.663-14.536-10.368-14.985-.697l-7.229 155.453-78.119-31.208z"/><path d="m508.012 181.883-41.402-58.434c-6.147-8.675-17.55-11.603-27.117-6.963l-64.434 31.257c-5.736 2.783-9.935 7.92-11.521 14.096l-65.65 255.667c-1.442 5.617-.686 11.198 2.243 16.248l39.1 67.404c5.974 10.3 19.704 13.829 29.906 7.679l30.721-18.517c8.287-4.994.542-17.842-7.744-12.848l-13.7 8.258 26.207-38.527 18.766 11.419-4.271 2.574c-8.286 4.995-.543 17.841 7.745 12.848 7.983-4.812 16.291-8.79 18.807-18.592l65.649-255.666c1.586-6.176.381-12.701-3.305-17.903zm-14.351 5.694-22.964 1.159-5.614-41.494zm-96.631 240.379-43.271-11.12 58.027-225.984 43.271 11.12zm-43.925 4.201 37.119 9.539-31.781 46.723zm102.156-245.622-36.216-9.307 29.555-39.925zm-50.802-14.817-19.564-12.072 44.47-21.573zm-28.051.319 21.341 13.168-59.003 229.783-25.006 1.106zm-60.523 258.977 21.95-.971 4.402 46.4zm116.573 15.565-21.381-13.01 59.003-229.783 25.046-1.264z"/></svg>