<?xml version="1.0" encoding="iso-8859-1"?>
<!-- Generator: Adobe Illustrator 19.0.0, SVG Export Plug-In . SVG Version: 6.00 Build 0)  -->
<svg version="1.1" id="Capa_1" 
	xmlns="http://www.w3.org/2000/svg" 
	xmlns:xlink="http://www.w3.org/1999/xlink" x="0px" y="0px" viewBox="0 0 511.998 511.998" style="enable-background:new 0 0 511.998 511.998;" xml:space="preserve" width="512" height="512">
	<path style="fill:#A0E557;" d="M176.616,134.152c32.699,32.699,78.689,44.001,120.579,33.914
	c10.087-41.89-1.216-87.88-33.914-120.579S184.591,3.486,142.701,13.573C132.614,55.463,143.917,101.453,176.616,134.152z"/>
	<path style="fill:#D8FB93;" d="M182.737,259.755c32.699,32.699,78.689,44.001,120.579,33.915
	c10.087-41.89-1.216-87.88-33.914-120.579s-78.689-44.001-120.579-33.915C138.737,181.066,150.038,227.055,182.737,259.755z"/>
	<path style="fill:#FF5D5D;" d="M52.09,173.917L52.09,173.917c24.816,0,47.243,14.79,57.015,37.6l0,0
	c37.81,88.246,87.123,171.105,146.66,246.421l34.781,44.001l-37.094-4.315c-66.316-7.716-127.437-39.678-171.609-89.739l-1.765-2
	C34.774,354.541,9.977,288.918,9.999,220.968c0.001-1.683,0.001-3.343,0.002-4.977C10.008,192.75,28.85,173.917,52.09,173.917
	L52.09,173.917z"/>
	<path style="fill:#A0E557;" d="M52.09,173.917L52.09,173.917c-23.241,0-42.083,18.833-42.09,42.073c0,1.634-0.001,3.295-0.002,4.976
	c-0.002,5.449,0.174,10.882,0.489,16.295l8.915-7.494c6.958-5.848,16.078-8.457,25.077-7.171l13.855,1.979l0,0
	c6.671-12.95,21.257-19.748,35.464-16.529l15.308,3.469C99.333,188.707,76.906,173.917,52.09,173.917z"/>
	<circle style="fill:#FEDA9B;" cx="373.95" cy="191.913" r="127.983"/>
	<g>
		<circle style="fill:#D8FB93;" cx="373.95" cy="191.913" r="91.988"/>
		<ellipse style="fill:#D8FB93;" cx="326.277" cy="406.184" rx="39.662" ry="55.701"/>
		<ellipse style="fill:#D8FB93;" cx="326.277" cy="427.222" rx="21.633" ry="34.662"/>

		<ellipse transform="matrix(-0.7071 -0.7071 0.7071 -0.7071 453.5469 1095.0981)" style="fill:#D8FB93;" cx="453.576" cy="453.616" rx="55.7" ry="39.661"/>

		<ellipse transform="matrix(-0.7071 -0.7071 0.7071 -0.7071 468.4235 1131.0022)" style="fill:#D8FB93;" cx="468.45" cy="468.487" rx="34.662" ry="21.633"/>
	</g>
	<path d="M157.385,127.305c-3.655,0.57-7.293,1.281-10.904,2.15c-3.651,0.879-6.501,3.73-7.38,7.38
	c-5.432,22.56-5.091,46.314,0.984,68.697c6.268,23.089,18.572,44.284,35.58,61.294c26.076,26.075,61.355,40.405,97.671,40.402
	c7.352,0,14.753-0.596,22.122-1.793c22.891,15.899,50.031,24.465,78.491,24.465c36.856,0,71.507-14.352,97.568-40.414
	c42.076-42.077,52.48-106.085,25.887-159.274c-2.469-4.938-8.474-6.94-13.415-4.471c-4.938,2.47-6.941,8.476-4.471,13.415
	c22.739,45.478,13.841,100.209-22.141,136.19c-46.002,46.002-120.853,46.002-166.855,0s-46.002-120.853,0-166.854
	c34.296-34.296,85.27-44.139,129.862-25.073c5.078,2.172,10.954-0.186,13.124-5.263c2.171-5.077-0.186-10.954-5.263-13.124
	c-25.051-10.711-52.503-13.756-79.39-8.805c-18.785,3.458-36.412,10.698-52.031,21.253c-6.679-13.704-15.561-26.148-26.474-37.061
	c-17.01-17.01-38.205-29.313-61.294-35.58c-22.382-6.076-46.136-6.415-68.697-0.984c-3.651,0.879-6.501,3.73-7.38,7.38
	c-5.432,22.56-5.091,46.314,0.984,68.697C138.621,97.081,146.614,113.182,157.385,127.305z M189.808,252.684
	c-27.815-27.814-39.756-66.697-32.566-105.081c28.081-5.193,57.553,0.008,82.01,14.575c-3.734,17.04-4.209,34.653-1.442,51.842
	l-36.344-36.344c-3.904-3.904-10.236-3.904-14.141,0c-3.904,3.904-3.904,10.236,0,14.141l64.314,64.314
	c0.106,0.106,0.221,0.198,0.33,0.298c5.811,11.003,13.211,21.377,22.201,30.784C242.817,287.437,212.301,275.18,189.808,252.684z
	 M151.122,21.993c38.385-7.192,77.272,4.748,105.089,32.565c10.386,10.385,18.614,22.382,24.488,35.672
	c-1.462,1.343-2.905,2.71-4.315,4.12c-6.634,6.634-12.447,13.784-17.446,21.318l-63.595-63.595c-3.904-3.904-10.236-3.904-14.141,0
	c-3.904,3.904-3.904,10.236,0,14.141l67.592,67.592c-1.327,2.865-2.545,5.769-3.665,8.701c-19.257-10.516-40.902-16.225-62.777-16.8
	C155.498,97.993,144.046,59.756,151.122,21.993z"/>
	<path d="M263.609,451.738c-18.382-23.254-36.014-47.563-52.406-72.251c-3.056-4.602-9.26-5.853-13.861-2.8
	c-4.6,3.056-5.853,9.261-2.799,13.86c16.697,25.146,34.655,49.905,53.378,73.591l19.826,25.082l-13.139-1.528
	c-63.967-7.442-122.661-38.135-165.268-86.423l-1.765-2c-38.996-44.195-62.297-99.518-66.771-157.618l5.03-4.228
	c4.775-4.013,11.053-5.812,17.23-4.927l13.855,1.979c4.215,0.603,8.352-1.532,10.303-5.319c4.584-8.898,14.603-13.567,24.366-11.355
	l10.377,2.352c15.09,34.764,32.123,69.08,50.711,102.064c2.712,4.81,8.81,6.511,13.62,3.801c4.811-2.712,6.513-8.81,3.801-13.62
	c-19.073-33.842-36.502-69.109-51.802-104.817c-11.363-26.523-37.351-43.661-66.206-43.661c-2.135,0-4.235,0.144-6.304,0.395
	c1.294-20.319,9.804-39.247,24.33-53.774c3.904-3.904,3.904-10.236,0-14.14s-10.236-3.904-14.14,0
	c-19.591,19.591-30.381,45.64-30.381,73.346v1.44C10.293,180.266,0.006,196.944,0,215.987l0,4.977
	c-0.002,5.465,0.17,10.914,0.477,16.343c0.001,0.362,0.021,0.724,0.062,1.085C4.404,302.559,29.629,363.82,72.581,412.5l1.765,2
	c45.878,51.994,109.076,85.042,177.951,93.055l37.094,4.315c0.388,0.046,0.774,0.067,1.159,0.067c3.592,0,6.949-1.939,8.729-5.127
	c1.97-3.531,1.62-7.9-0.888-11.072L263.609,451.738z M52.091,183.916c13.129,0,25.434,4.915,34.796,13.339
	c-13.09-0.052-25.538,6.051-33.509,16.514l-7.485-1.069c-8.968-1.281-18.047,0.4-25.896,4.643v-1.35
	C20.004,198.306,34.4,183.916,52.091,183.916z"/>
	<path d="M178.4,346.448c-4.708,2.887-6.186,9.042-3.3,13.75l0.167,0.271c1.887,3.079,5.17,4.774,8.534,4.774
	c1.782,0,3.586-0.476,5.215-1.475c4.708-2.887,6.186-9.042,3.3-13.75l-0.167-0.271C189.264,345.039,183.107,343.563,178.4,346.448z" />
	<path d="M458.672,109.803c1.961,2.023,4.568,3.04,7.18,3.04c2.507,0,5.016-0.937,6.958-2.82c3.965-3.843,4.063-10.174,0.22-14.138
	c-0.5-0.516-1.003-1.027-1.512-1.536c-3.904-3.904-10.236-3.904-14.141,0c-3.904,3.904-3.904,10.236,0,14.141
	C457.814,108.925,458.245,109.363,458.672,109.803z"/>
	<path d="M271.965,191.917c0,56.236,45.751,101.986,101.986,101.986s101.986-45.751,101.986-101.986S430.187,89.93,373.951,89.93
	S271.965,135.681,271.965,191.917z M455.94,191.917c0,11.358-2.325,22.183-6.519,32.028l-55.473-32.027l55.474-32.028
	C453.615,169.734,455.94,180.558,455.94,191.917z M291.962,191.917c0-11.358,2.325-22.183,6.518-32.027l55.474,32.028
	l-55.473,32.027C294.287,214.1,291.962,203.275,291.962,191.917z M363.953,110.559v64.039l-55.443-32.01
	C321.589,125.28,341.368,113.319,363.953,110.559z M308.51,241.244l55.443-32.01v64.04
	C341.368,270.515,321.589,258.554,308.51,241.244z M383.95,273.274v-64.04l55.443,32.01
	C426.312,258.554,406.534,270.515,383.95,273.274z M439.392,142.59l-55.443,32.01V110.56
	C406.534,113.319,426.312,125.28,439.392,142.59z"/>
	<path d="M326.278,340.482c-13.918,0-26.77,7.285-36.189,20.514c-8.687,12.199-13.47,28.247-13.47,45.186s4.784,32.987,13.47,45.185
	c9.419,13.228,22.271,20.514,36.189,20.514c13.918,0,26.77-7.285,36.189-20.514c8.687-12.198,13.47-28.246,13.47-45.185
	s-4.784-32.987-13.47-45.186C353.048,347.767,340.196,340.482,326.278,340.482z M326.278,360.48
	c16.079,0,29.663,20.93,29.663,45.703c0,1.568-0.055,3.12-0.161,4.652c-4.538-16.704-15.883-28.274-29.501-28.274
	c-13.618,0-24.963,11.569-29.501,28.274c-0.106-1.533-0.161-3.085-0.161-4.652C296.616,381.409,310.199,360.48,326.278,360.48z
	 M314.643,427.221c0-14.826,7.003-24.663,11.634-24.663c4.631,0,11.634,9.837,11.634,24.663c0,14.827-7.003,24.664-11.634,24.664
	C321.646,451.884,314.643,442.048,314.643,427.221z"/>
	<path d="M488.698,418.498c-11.977-11.977-26.707-19.942-41.477-22.427c-16.015-2.691-30.254,1.244-40.095,11.086
	c-9.842,9.842-13.779,24.081-11.086,40.096c2.485,14.769,10.449,29.498,22.427,41.475s26.707,19.942,41.477,22.427
	c3.291,0.554,6.504,0.827,9.623,0.827c12.056-0.001,22.654-4.092,30.473-11.911c9.842-9.843,13.778-24.082,11.085-40.096
	C508.641,445.206,500.677,430.476,488.698,418.498z M460.233,476.717c-10.484-10.484-12.488-22.392-9.213-25.667
	c0.936-0.936,2.574-1.44,4.682-1.44c5.276,0,13.495,3.163,20.985,10.653c5.165,5.164,8.875,11.358,10.18,16.996
	c0.907,3.917,0.545,7.159-0.967,8.671C482.625,489.206,470.716,487.201,460.233,476.717z M415.762,443.935
	c-1.591-9.458,0.364-17.498,5.505-22.638c3.974-3.975,9.68-6.045,16.436-6.045c1.982,0,4.056,0.179,6.202,0.54
	c10.704,1.8,21.59,7.783,30.653,16.847c1.109,1.109,2.167,2.245,3.176,3.404c-15.02-8.601-31.223-8.76-40.853,0.868
	c-9.632,9.633-9.47,25.843-0.86,40.868c-1.162-1.016-2.301-2.08-3.412-3.19C423.546,465.524,417.563,454.639,415.762,443.935z"/>
	<path d="M468.868,323.893c-1.86,1.86-2.93,4.439-2.93,7.069c0,2.63,1.07,5.209,2.93,7.068c1.86,1.86,4.439,2.931,7.069,2.931
	c2.63,0,5.209-1.07,7.069-2.931c1.86-1.859,2.93-4.438,2.93-7.068c0-2.63-1.07-5.209-2.93-7.069c-1.86-1.86-4.439-2.93-7.069-2.93
	C473.307,320.964,470.728,322.034,468.868,323.893z"/>
	<path d="M406.876,343.412c-1.86,1.859-2.93,4.438-2.93,7.068c0,2.63,1.07,5.209,2.93,7.069c1.86,1.86,4.439,2.93,7.069,2.93
	s5.209-1.069,7.069-2.93s2.93-4.439,2.93-7.069c0-2.63-1.07-5.209-2.93-7.068c-1.86-1.86-4.439-2.931-7.069-2.931
	S408.737,341.551,406.876,343.412z"/>
	<path d="M446.511,355.879c-1.86,1.86-2.93,4.429-2.93,7.069c0,2.63,1.07,5.209,2.93,7.068c1.86,1.86,4.439,2.931,7.069,2.931
	c2.63,0,5.209-1.07,7.069-2.931c1.87-1.859,2.93-4.438,2.93-7.068c0-2.641-1.06-5.209-2.93-7.069c-1.86-1.86-4.439-2.93-7.069-2.93
	C450.95,352.951,448.37,354.019,446.511,355.879z"/>
	<g>
	</g>
	<g>
	</g>
	<g>
	</g>
	<g>
	</g>
	<g>
	</g>
	<g>
	</g>
	<g>
	</g>
	<g>
	</g>
	<g>
	</g>
	<g>
	</g>
	<g>
	</g>
	<g>
	</g>
	<g>
	</g>
	<g>
	</g>
	<g>
	</g>
</svg>
