<svg id="Capa_1" enable-background="new 0 0 512 512" height="512" viewBox="0 0 512 512" width="512" xmlns="http://www.w3.org/2000/svg"><path d="m224.116 103.148c9.017 24.817-16.986 45.903-20.948 48.934-.326.249-.711.389-1.12.407-4.984.22-38.465.751-47.482-24.066-13.117-36.1 7.261-67.068 11.628-73.102.477-.66 1.299-.958 2.089-.759 7.22 1.823 42.716 12.486 55.833 48.586z" fill="#ffca28"/><path d="m224.116 103.148c-12.768-35.141-46.734-46.175-55.19-48.419 10.774 7.453 21.854 18.79 28.007 35.725 9.017 24.817-16.986 45.903-20.947 48.934-.326.249-.711.389-1.121.407-1.781.079-7.206.191-13.847-.822 13.114 14.08 36.892 13.698 41.03 13.516.41-.018.795-.158 1.121-.407 3.961-3.031 29.964-24.117 20.947-48.934z" fill="#ffb300"/><path d="m343.887 385.175c0 39.943-28.02 72.325-62.59 72.325h-211.2v-144.64h211.2c34.57 0 62.59 32.382 62.59 72.315z" fill="#8c4815"/><ellipse cx="70.095" cy="385.179" fill="#ffe8cf" rx="62.595" ry="72.319"/><path d="m423.583 255.943c0 39.943-28.02 72.325-62.59 72.325h-211.2v-144.64h211.2c34.57 0 62.59 32.382 62.59 72.315z" fill="#a35418"/><ellipse cx="149.791" cy="255.947" fill="#ffe8cf" rx="62.595" ry="72.319"/><path d="m504.5 385.175c0 39.943-28.02 72.325-62.59 72.325h-211.2v-144.64h211.2c34.57 0 62.59 32.382 62.59 72.315z" fill="#bf6724"/><ellipse cx="230.708" cy="385.179" fill="#ffe8cf" rx="62.595" ry="72.319"/><path d="m70.095 417.775c-4.142 0-7.5 3.358-7.5 7.5s3.358 7.5 7.5 7.5c23.271 0 42.205-21.351 42.205-47.595s-18.933-47.595-42.205-47.595-42.205 21.351-42.205 47.595c0 4.142 3.358 7.5 7.5 7.5s7.5-3.358 7.5-7.5c0-17.973 12.204-32.595 27.205-32.595s27.205 14.622 27.205 32.595-12.204 32.595-27.205 32.595z"/><path d="m149.791 303.788c4.142 0 7.5-3.358 7.5-7.5s-3.358-7.5-7.5-7.5c-15.117 0-27.416-14.731-27.416-32.839s12.298-32.839 27.416-32.839 27.416 14.731 27.416 32.839c0 4.142 3.358 7.5 7.5 7.5s7.5-3.358 7.5-7.5c0-26.379-19.027-47.839-42.416-47.839s-42.416 21.46-42.416 47.839 19.028 47.839 42.416 47.839z"/><path d="m441.91 305.362h-25.83c9.66-13.932 15-31.208 15-49.419 0-11.868-2.231-23.29-6.632-33.95-1.582-3.829-5.968-5.65-9.794-4.071-3.829 1.581-5.651 5.966-4.071 9.794 3.648 8.836 5.498 18.333 5.498 28.227 0 6.937-.921 13.696-2.682 20.084h-119.356c-4.142 0-7.5 3.358-7.5 7.5s3.358 7.5 7.5 7.5h113.295c-2.911 5.301-6.505 10.134-10.715 14.336h-165.913c-.036 0-.072.001-.108.001-12.5.021-24.244 3.787-34.41 10.364 14.523-14.635 23.694-36.009 23.694-59.777 0-3.585-.209-7.116-.613-10.578h74.77c4.142 0 7.5-3.358 7.5-7.5s-3.358-7.5-7.5-7.5h-77.848c-4.742-15.92-13.783-29.6-25.541-39.239h170.336c12.148 0 23.673 4.576 33.33 13.232 3.076 2.757 7.819 2.514 10.591-.578 2.765-3.084 2.506-7.826-.578-10.591-12.453-11.163-27.44-17.063-43.343-17.063h-141.745l-7.717-21.242c16.118-14.268 26.962-34.14 19.637-54.3-14.425-39.698-53.384-51.361-61.048-53.296-3.786-.957-7.712.472-9.999 3.633-4.635 6.404-27.026 40.362-12.602 80.061 7.313 20.127 28.342 28.428 49.913 29.023l5.857 16.123h-53.227c-.089 0-.179-.001-.268-.001-38.65 0-70.095 35.806-70.095 79.818 0 18.642 5.642 35.812 15.083 49.412h-24.679c-.037 0-.074.001-.111.001-10.814.018-21.182 2.761-30.818 8.154-3.614 2.023-4.904 6.594-2.881 10.208 2.024 3.615 6.594 4.905 10.208 2.881 7.401-4.143 15.34-6.244 23.596-6.244 30.379 0 55.095 29.077 55.095 64.818s-24.716 64.818-55.095 64.818-55.094-29.081-55.094-64.821c0-14.243 3.861-27.76 11.166-39.092 2.244-3.481 1.241-8.123-2.24-10.367-3.481-2.243-8.123-1.241-10.367 2.24-8.871 13.759-13.559 30.087-13.559 47.219 0 43.932 31.331 79.688 69.887 79.817.071.002.142.003.213.003h313.769c4.142 0 7.5-3.358 7.5-7.5s-3.358-7.5-7.5-7.5h-112.302c17.694-14.503 29.236-38.155 29.236-64.82 0-6.096-.604-12.034-1.745-17.741h136.057c4.142 0 7.5-3.358 7.5-7.5s-3.358-7.5-7.5-7.5h-140.483c-5.1-12.86-13.108-23.917-23.063-32.078h170.341c30.376 0 55.09 29.078 55.09 64.82 0 8.057-1.256 15.776-3.55 22.899h-92.093c-4.142 0-7.5 3.358-7.5 7.5s3.358 7.5 7.5 7.5h85.22c-10.015 16.297-26.306 26.92-44.667 26.92h-25.855c-4.142 0-7.5 3.358-7.5 7.5s3.358 7.5 7.5 7.5h25.855c38.647 0 70.09-35.807 70.09-79.819 0-44.013-31.442-79.819-70.09-79.819zm-280.296-179.497c-10.307-28.366 2.484-53.434 8.514-62.965 10.736 3.436 36.631 14.444 46.938 42.813 4.906 13.501-4.01 26.264-11.14 33.759l-19.377-53.339c-1.414-3.893-5.718-5.902-9.61-4.488-3.893 1.415-5.902 5.717-4.488 9.61l19.376 53.336c-10.279-1.17-25.31-5.233-30.213-18.726zm-11.883 65.267c.02 0 .04.001.059.001h.26c30.261.165 54.836 29.178 54.836 64.817 0 35.74-24.716 64.818-55.095 64.818s-55.095-29.077-55.095-64.818c0-35.717 24.683-64.779 55.035-64.818zm-9.541 194.048c0-22.808-8.445-43.412-21.961-57.971 9.432 5.439 20.082 8.519 31.35 8.558.071.002.142.003.214.003h25.902c-9.441 13.6-15.082 30.769-15.082 49.411 0 26.665 11.542 50.317 29.236 64.82h-78.894c17.693-14.504 29.235-38.156 29.235-64.821zm145.613 0c0 35.74-24.716 64.818-55.095 64.818s-55.095-29.077-55.095-64.818 24.716-64.818 55.095-64.818 55.095 29.078 55.095 64.818z"/><path d="m230.708 335.55c-4.142 0-7.5 3.358-7.5 7.5s3.358 7.5 7.5 7.5c15.972 0 28.967 15.535 28.967 34.63s-12.995 34.63-28.967 34.63-28.966-15.535-28.966-34.63c0-4.142-3.358-7.5-7.5-7.5s-7.5 3.358-7.5 7.5c0 27.366 19.723 49.63 43.966 49.63s43.967-22.264 43.967-49.63-19.724-49.63-43.967-49.63z"/><path d="m339.218 230.372c-4.142 0-7.5 3.358-7.5 7.5s3.358 7.5 7.5 7.5h28.387c4.142 0 7.5-3.358 7.5-7.5s-3.358-7.5-7.5-7.5z"/><path d="m325.895 408.08c-4.142 0-7.5 3.358-7.5 7.5s3.358 7.5 7.5 7.5h23.428c4.142 0 7.5-3.358 7.5-7.5s-3.358-7.5-7.5-7.5z"/></svg>